<?xml version="1.0" encoding="UTF-8"?>
<!DOCTYPE svg PUBLIC "-//W3C//DTD SVG 1.1//EN" "http://www.w3.org/Graphics/SVG/1.1/DTD/svg11.dtd">
<svg xmlns="http://www.w3.org/2000/svg" version="1.1" width="468px" height="446px" style="shape-rendering:geometricPrecision; text-rendering:geometricPrecision; image-rendering:optimizeQuality; fill-rule:evenodd; clip-rule:evenodd" xmlns:xlink="http://www.w3.org/1999/xlink">
<g><path style="opacity:1" fill="#d9dc88" d="M 312.5,57.5 C 313.833,58.1667 313.833,58.1667 312.5,57.5 Z"/></g>
<g><path style="opacity:1" fill="#e4e084" d="M 366.5,58.5 C 367.833,59.1667 367.833,59.1667 366.5,58.5 Z"/></g>
<g><path style="opacity:1" fill="#e4d394" d="M 366.5,59.5 C 365.833,60.1667 365.833,60.1667 366.5,59.5 Z"/></g>
<g><path style="opacity:1" fill="#e0cf79" d="M 314.5,62.5 C 313.427,61.7494 313.26,60.7494 314,59.5C 314.483,60.448 314.649,61.448 314.5,62.5 Z"/></g>
<g><path style="opacity:1" fill="#e1d28a" d="M 364.5,64.5 C 364.351,63.448 364.517,62.448 365,61.5C 365.74,62.7494 365.573,63.7494 364.5,64.5 Z"/></g>
<g><path style="opacity:1" fill="#e1ec78" d="M 390.5,71.5 C 390.639,69.663 391.306,69.3296 392.5,70.5C 392.043,71.2975 391.376,71.6309 390.5,71.5 Z"/></g>
<g><path style="opacity:1" fill="#dcd68f" d="M 290.5,73.5 C 289.833,72.1667 289.833,72.1667 290.5,73.5 Z"/></g>
<g><path style="opacity:1" fill="#e0df80" d="M 390.5,71.5 C 390.5,72.8333 389.833,73.5 388.5,73.5C 388.833,72.5 389.5,71.8333 390.5,71.5 Z"/></g>
<g><path style="opacity:1" fill="#e6e692" d="M 373.5,73.5 C 374.833,74.1667 374.833,74.1667 373.5,73.5 Z"/></g>
<g><path style="opacity:1" fill="#e4d26f" d="M 388.5,73.5 C 388.573,75.0269 387.906,76.0269 386.5,76.5C 386.427,74.9731 387.094,73.9731 388.5,73.5 Z"/></g>
<g><path style="opacity:1" fill="#ebdc86" d="M 307.5,76.5 C 306.833,75.1667 306.833,75.1667 307.5,76.5 Z"/></g>
<g><path style="opacity:1" fill="#e6dd8a" d="M 373.5,74.5 C 373.25,76.674 372.25,78.3406 370.5,79.5C 370.75,77.326 371.75,75.6594 373.5,74.5 Z"/></g>
<g><path style="opacity:1" fill="#dec26b" d="M 307.5,76.5 C 308.338,76.8417 308.672,77.5084 308.5,78.5C 307.662,78.1583 307.328,77.4916 307.5,76.5 Z"/></g>
<g><path style="opacity:1" fill="#e9ce65" d="M 341.5,91.5 C 340.67,83.0097 340.17,74.343 340,65.5C 339.722,66.4158 339.222,67.0825 338.5,67.5C 338.263,63.7267 338.763,60.0601 340,56.5C 341.332,68.1237 341.832,79.7903 341.5,91.5 Z"/></g>
<g><path style="opacity:1" fill="#e3d599" d="M 286.5,87.5 C 285.833,86.1667 285.833,86.1667 286.5,87.5 Z"/></g>
<g><path style="opacity:1" fill="#efca3c" d="M 370.5,79.5 C 370.391,82.8992 369.058,85.5659 366.5,87.5C 366.974,84.3714 368.308,81.7047 370.5,79.5 Z"/></g>
<g><path style="opacity:1" fill="#ded774" d="M 286.5,87.5 C 287.167,87.5 287.5,87.8333 287.5,88.5C 287.167,88.1667 286.833,87.8333 286.5,87.5 Z"/></g>
<g><path style="opacity:1" fill="#ddd06c" d="M 287.5,88.5 C 288.167,88.5 288.5,88.8333 288.5,89.5C 288.167,89.1667 287.833,88.8333 287.5,88.5 Z"/></g>
<g><path style="opacity:1" fill="#f3c68a" d="M 288.5,89.5 C 289.167,89.5 289.5,89.8333 289.5,90.5C 289.167,90.1667 288.833,89.8333 288.5,89.5 Z"/></g>
<g><path style="opacity:1" fill="#f6cd65" d="M 388.5,91.5 C 388.783,90.7109 389.283,90.0442 390,89.5C 390.528,90.816 390.028,91.4827 388.5,91.5 Z"/></g>
<g><path style="opacity:1" fill="#eacb72" d="M 289.5,90.5 C 291.5,90.5 292.5,91.5 292.5,93.5C 291.167,92.8333 290.167,91.8333 289.5,90.5 Z"/></g>
<g><path style="opacity:1" fill="#ead47f" d="M 407.5,92.5 C 407.897,91.475 408.563,91.3083 409.5,92C 408.906,92.4643 408.239,92.631 407.5,92.5 Z"/></g>
<g><path style="opacity:1" fill="#e5d750" d="M 388.5,91.5 C 388.5,92.8333 387.833,93.5 386.5,93.5C 386.5,92.1667 387.167,91.5 388.5,91.5 Z"/></g>
<g><path style="opacity:1" fill="#ecca63" d="M 407.5,92.5 C 405.47,95.182 402.803,96.8486 399.5,97.5C 401.629,95.0499 404.296,93.3833 407.5,92.5 Z"/></g>
<g><path style="opacity:1" fill="#95c642" d="M 337.5,145.5 C 337.456,148.134 337.456,150.8 337.5,153.5C 335.423,152.012 334.423,150.012 334.5,147.5C 332.549,147.773 331.049,147.107 330,145.5C 328.276,148.17 327.109,147.837 326.5,144.5C 325.675,143.614 324.675,143.281 323.5,143.5C 323.5,142.167 323.5,140.833 323.5,139.5C 325.288,139.785 326.955,139.452 328.5,138.5C 326.604,137.534 324.604,137.201 322.5,137.5C 322.5,136.167 322.5,134.833 322.5,133.5C 319.477,133.895 318.477,132.895 319.5,130.5C 317.697,126.488 316.697,126.822 316.5,131.5C 316.716,133.384 317.383,135.051 318.5,136.5C 316.994,139.474 315.328,139.807 313.5,137.5C 312.534,139.396 312.201,141.396 312.5,143.5C 310.713,139.925 308.879,136.259 307,132.5C 276.763,103.586 240.597,91.2525 198.5,95.5C 196.007,95.8693 195.34,95.2027 196.5,93.5C 254.65,81.4378 301.65,98.7711 337.5,145.5 Z"/></g>
<g><path style="opacity:1" fill="#adc760" d="M 196.5,93.5 C 195.34,95.2027 196.007,95.8693 198.5,95.5C 192.698,97.1962 186.698,98.5296 180.5,99.5C 185.43,96.6353 190.764,94.6353 196.5,93.5 Z"/></g>
<g><path style="opacity:1" fill="#f5c43b" d="M 308.5,78.5 C 314.069,85.9564 318.902,93.9564 323,102.5C 323.759,104.063 324.926,105.063 326.5,105.5C 326.833,106.833 327.167,108.167 327.5,109.5C 326.965,113.334 325.465,114.001 323,111.5C 322.667,112.167 322.333,112.833 322,113.5C 321.51,112.207 321.343,110.873 321.5,109.5C 322.833,108.167 322.833,106.833 321.5,105.5C 316.609,96.8597 312.276,87.8597 308.5,78.5 Z"/></g>
<g><path style="opacity:1" fill="#bac484" d="M 180.5,99.5 C 180.103,100.525 179.437,100.692 178.5,100C 179.094,99.5357 179.761,99.369 180.5,99.5 Z"/></g>
<g><path style="opacity:1" fill="#9cbe55" d="M 54.5,101.5 C 54.1796,104.898 54.513,108.232 55.5,111.5C 57.5862,112.489 59.2529,113.822 60.5,115.5C 55.2945,115.063 52.6278,112.229 52.5,107C 53.1094,105.052 53.776,103.218 54.5,101.5 Z"/></g>
<g><path style="opacity:1" fill="#edeea8" d="M 353.5,103.5 C 353.5,104.167 353.833,104.5 354.5,104.5C 354.5,105.5 354.5,106.5 354.5,107.5C 353.414,107.38 352.747,106.713 352.5,105.5C 352.543,104.584 352.876,103.917 353.5,103.5 Z"/></g>
<g><path style="opacity:1" fill="#f5c432" d="M 386.5,76.5 C 379.154,88.3644 371.154,99.8644 362.5,111C 363.944,111.781 365.277,111.614 366.5,110.5C 372.857,104.343 379.524,98.6764 386.5,93.5C 379.833,100.833 373.167,108.167 366.5,115.5C 363.858,115.488 362.525,116.821 362.5,119.5C 360.926,117.424 359.092,115.424 357,113.5C 356.098,113.743 355.265,114.077 354.5,114.5C 354.062,114.565 353.728,114.399 353.5,114C 354.696,112.636 355.696,111.136 356.5,109.5C 356.253,108.287 355.586,107.62 354.5,107.5C 354.5,106.5 354.5,105.5 354.5,104.5C 358.177,99.4668 361.51,94.1334 364.5,88.5C 364.957,87.7025 365.624,87.3691 366.5,87.5C 364.175,94.2798 361.175,100.78 357.5,107C 357.85,108.257 358.517,108.591 359.5,108C 368.365,97.3081 377.365,86.8081 386.5,76.5 Z"/></g>
<g><path style="opacity:1" fill="#95c54a" d="M 72.5,109.5 C 70.7063,115.9 66.7063,117.9 60.5,115.5C 63.2469,115.813 65.9135,115.48 68.5,114.5C 68.8333,113.833 69.1667,113.167 69.5,112.5C 67.6471,111.24 65.8138,111.24 64,112.5C 57.6846,110.396 55.8512,106.396 58.5,100.5C 58.1667,99.5 57.8333,98.5 57.5,97.5C 56.4793,98.9014 55.4793,100.235 54.5,101.5C 55.3765,96.0881 57.5431,91.4215 61,87.5C 66.5031,89.2484 71.1697,92.2484 75,96.5C 76.0314,101.304 75.1981,105.637 72.5,109.5 Z"/></g>
<g><path style="opacity:1" fill="#95c938" d="M 72.5,109.5 C 69.2655,108.424 65.9322,107.757 62.5,107.5C 62.2592,104.103 61.5925,100.769 60.5,97.5C 60.7163,95.6161 61.383,93.9494 62.5,92.5C 61.8333,91.8333 61.1667,91.1667 60.5,90.5C 61.5,89.1667 62.5,89.1667 63.5,90.5C 66.4908,94.1008 67.1575,98.1008 65.5,102.5C 65.9186,103.672 66.5853,104.672 67.5,105.5C 68.48,102.914 68.8134,100.247 68.5,97.5C 70.1667,97.5 71.8333,97.5 73.5,97.5C 73.4955,101.534 73.1621,105.534 72.5,109.5 Z"/></g>
<g><path style="opacity:1" fill="#f7d6b7" d="M 321.5,105.5 C 322.833,106.833 322.833,108.167 321.5,109.5C 320.662,109.158 320.328,108.492 320.5,107.5C 321.338,107.158 321.672,106.492 321.5,105.5 Z"/></g>
<g><path style="opacity:1" fill="#f0c93e" d="M 292.5,93.5 C 300.237,98.7273 307.57,104.561 314.5,111C 315.816,111.528 316.483,111.028 316.5,109.5C 317.574,111.279 318.907,112.946 320.5,114.5C 319.388,115.265 318.721,116.265 318.5,117.5C 309.032,110.421 300.365,102.421 292.5,93.5 Z"/></g>
<g><path style="opacity:1" fill="#95c837" d="M 60.5,115.5 C 59.2529,113.822 57.5862,112.489 55.5,111.5C 54.513,108.232 54.1796,104.898 54.5,101.5C 55.4793,100.235 56.4793,98.9014 57.5,97.5C 57.8333,98.5 58.1667,99.5 58.5,100.5C 55.8512,106.396 57.6846,110.396 64,112.5C 65.8138,111.24 67.6471,111.24 69.5,112.5C 69.1667,113.167 68.8333,113.833 68.5,114.5C 65.9135,115.48 63.2469,115.813 60.5,115.5 Z"/></g>
<g><path style="opacity:1" fill="#fabf25" d="M 314.5,62.5 C 315.117,62.6107 315.617,62.944 316,63.5C 320.327,77.1555 325.494,90.4889 331.5,103.5C 331.833,102.667 332.167,101.833 332.5,101C 331.066,95.5896 330.399,90.0896 330.5,84.5C 330.263,83.209 330.596,82.209 331.5,81.5C 333.37,89.3326 335.203,97.3326 337,105.5C 338.441,92.908 338.941,80.2414 338.5,67.5C 339.222,67.0825 339.722,66.4158 340,65.5C 340.17,74.343 340.67,83.0097 341.5,91.5C 341.335,94.5184 341.502,97.5184 342,100.5C 342.414,100.957 342.914,101.291 343.5,101.5C 344.169,99.3691 344.835,97.3691 345.5,95.5C 346.299,98.4299 346.632,101.43 346.5,104.5C 347.077,105.773 347.743,105.773 348.5,104.5C 353.713,90.9789 359.047,77.6456 364.5,64.5C 361.648,77.8307 357.981,90.8307 353.5,103.5C 352.876,103.917 352.543,104.584 352.5,105.5C 352.747,106.713 353.414,107.38 354.5,107.5C 353.934,109.078 352.934,110.412 351.5,111.5C 350.833,110.833 350.167,110.167 349.5,109.5C 349.753,112.791 349.42,116.124 348.5,119.5C 342.5,119.5 336.5,119.5 330.5,119.5C 330.672,117.508 330.005,115.842 328.5,114.5C 330.005,113.158 330.672,111.492 330.5,109.5C 329.5,109.5 328.5,109.5 327.5,109.5C 327.167,108.167 326.833,106.833 326.5,105.5C 322.638,91.0407 318.638,76.7074 314.5,62.5 Z"/></g>
<g><path style="opacity:1" fill="#f1c44d" d="M 346.5,104.5 C 346.632,101.43 346.299,98.4299 345.5,95.5C 347.265,86.1764 349.098,76.8431 351,67.5C 350.447,80.0553 348.947,92.3886 346.5,104.5 Z"/></g>
<g><path style="opacity:1" fill="#eecb6b" d="M 331.5,81.5 C 330.596,82.209 330.263,83.209 330.5,84.5C 328.752,78.3844 327.919,72.051 328,65.5C 329.488,70.7593 330.655,76.0926 331.5,81.5 Z"/></g>
<g><path style="opacity:1" fill="#e3de92" d="M 419.5,116.5 C 419.897,115.475 420.563,115.308 421.5,116C 420.906,116.464 420.239,116.631 419.5,116.5 Z"/></g>
<g><path style="opacity:1" fill="#fad28f" d="M 366.5,115.5 C 366.833,115.5 367.167,115.5 367.5,115.5C 366.5,116.833 365.5,118.167 364.5,119.5C 363.833,119.5 363.167,119.5 362.5,119.5C 362.525,116.821 363.858,115.488 366.5,115.5 Z"/></g>
<g><path style="opacity:1" fill="#f7c21c" d="M 290.5,73.5 C 300.821,84.4912 310.821,95.8246 320.5,107.5C 320.328,108.492 320.662,109.158 321.5,109.5C 321.343,110.873 321.51,112.207 322,113.5C 322.333,112.833 322.667,112.167 323,111.5C 325.465,114.001 326.965,113.334 327.5,109.5C 328.5,109.5 329.5,109.5 330.5,109.5C 330.672,111.492 330.005,113.158 328.5,114.5C 330.005,115.842 330.672,117.508 330.5,119.5C 336.5,119.5 342.5,119.5 348.5,119.5C 349.42,116.124 349.753,112.791 349.5,109.5C 350.167,110.167 350.833,110.833 351.5,111.5C 352.934,110.412 353.934,109.078 354.5,107.5C 355.586,107.62 356.253,108.287 356.5,109.5C 355.696,111.136 354.696,112.636 353.5,114C 353.728,114.399 354.062,114.565 354.5,114.5C 353.432,115.434 352.099,115.768 350.5,115.5C 350.5,116.833 350.5,118.167 350.5,119.5C 351.978,119.238 353.311,119.571 354.5,120.5C 352.865,121.681 351.198,121.681 349.5,120.5C 348.494,120.938 348.494,121.604 349.5,122.5C 346.449,124.387 343.283,126.054 340,127.5C 337.764,124.231 334.597,122.897 330.5,123.5C 330.238,124.978 330.571,126.311 331.5,127.5C 334.385,128.756 336.219,130.423 337,132.5C 338.413,134.652 339.246,136.986 339.5,139.5C 333.202,131.534 326.202,124.201 318.5,117.5C 318.721,116.265 319.388,115.265 320.5,114.5C 318.907,112.946 317.574,111.279 316.5,109.5C 307.478,97.8029 298.811,85.8029 290.5,73.5 Z"/></g>
<g><path style="opacity:1" fill="#f2c63f" d="M 419.5,116.5 C 408.057,119.744 396.724,123.411 385.5,127.5C 384.448,125.744 382.781,125.077 380.5,125.5C 380.611,124.883 380.944,124.383 381.5,124C 394.067,120.961 406.734,118.461 419.5,116.5 Z"/></g>
<g><path style="opacity:1" fill="#fbbf1c" d="M 362.5,119.5 C 363.167,119.5 363.833,119.5 364.5,119.5C 364.423,120.75 363.756,121.583 362.5,122C 365.192,122.743 367.525,123.91 369.5,125.5C 369.167,125.5 368.833,125.5 368.5,125.5C 367.711,125.783 367.044,126.283 366.5,127C 368.712,127.789 370.712,127.622 372.5,126.5C 375.054,125.612 377.721,125.279 380.5,125.5C 382.781,125.077 384.448,125.744 385.5,127.5C 381.076,128.456 376.743,129.623 372.5,131C 380.159,131.5 387.826,131.666 395.5,131.5C 395.938,131.435 396.272,131.601 396.5,132C 395.584,132.278 394.918,132.778 394.5,133.5C 386.483,134.097 378.483,134.931 370.5,136C 379.036,137.493 387.702,138.66 396.5,139.5C 393.316,141.414 389.649,142.08 385.5,141.5C 380.821,141.334 376.155,141.501 371.5,142C 372.244,143.039 373.244,143.539 374.5,143.5C 371.597,145.104 368.263,146.104 364.5,146.5C 365.127,147.417 365.461,148.417 365.5,149.5C 364.957,149.56 364.624,149.893 364.5,150.5C 367.028,151.816 367.028,152.983 364.5,154C 365.641,154.741 365.641,155.575 364.5,156.5C 364.957,157.298 365.624,157.631 366.5,157.5C 376.129,167.463 385.795,177.463 395.5,187.5C 394.325,187.719 393.325,187.386 392.5,186.5C 383.517,178.638 374.517,170.972 365.5,163.5C 364.127,161.793 362.461,160.46 360.5,159.5C 360.631,158.624 360.298,157.957 359.5,157.5C 358.571,158.689 358.238,160.022 358.5,161.5C 357.25,161.423 356.417,160.756 356,159.5C 355.29,160.973 354.124,161.64 352.5,161.5C 348.671,153.838 344.338,146.505 339.5,139.5C 339.246,136.986 338.413,134.652 337,132.5C 336.219,130.423 334.385,128.756 331.5,127.5C 330.571,126.311 330.238,124.978 330.5,123.5C 334.597,122.897 337.764,124.231 340,127.5C 343.283,126.054 346.449,124.387 349.5,122.5C 348.494,121.604 348.494,120.938 349.5,120.5C 351.198,121.681 352.865,121.681 354.5,120.5C 353.311,119.571 351.978,119.238 350.5,119.5C 350.5,118.167 350.5,116.833 350.5,115.5C 352.099,115.768 353.432,115.434 354.5,114.5C 355.265,114.077 356.098,113.743 357,113.5C 359.092,115.424 360.926,117.424 362.5,119.5 Z"/></g>
<g><path style="opacity:1" fill="#f4c335" d="M 399.5,97.5 C 389.817,105.862 379.484,113.529 368.5,120.5C 369,120.833 369.5,121.167 370,121.5C 380.785,117.312 391.451,112.978 402,108.5C 402.167,108.833 402.333,109.167 402.5,109.5C 391.41,114.686 380.41,120.019 369.5,125.5C 367.525,123.91 365.192,122.743 362.5,122C 363.756,121.583 364.423,120.75 364.5,119.5C 365.5,118.167 366.5,116.833 367.5,115.5C 377.93,109.068 388.596,103.068 399.5,97.5 Z"/></g>
<g><path style="opacity:1" fill="#95c545" d="M 198.5,121.5 C 211.086,122.171 211.753,125.338 200.5,131C 185.263,131.02 184.596,127.853 198.5,121.5 Z"/></g>
<g><path style="opacity:1" fill="#95c740" d="M 260.5,108.5 C 265.913,110.96 270.747,114.293 275,118.5C 277.066,122.586 276.399,126.253 273,129.5C 267.49,127.749 262.823,124.749 259,120.5C 258.081,116.269 258.581,112.269 260.5,108.5 Z"/></g>
<g><path style="opacity:1" fill="#eec289" d="M 368.5,125.5 C 369.568,126.434 370.901,126.768 372.5,126.5C 370.712,127.622 368.712,127.789 366.5,127C 367.044,126.283 367.711,125.783 368.5,125.5 Z"/></g>
<g><path style="opacity:1" fill="#9ac24a" d="M 107.5,128.5 C 108.873,128.343 110.207,128.51 111.5,129C 104.966,132.502 98.1325,135.002 91,136.5C 90.5,136 90,135.5 89.5,135C 95.4347,132.303 101.435,130.136 107.5,128.5 Z"/></g>
<g><path style="opacity:1" fill="#e5cf75" d="M 395.5,131.5 C 399.981,130.352 404.648,130.185 409.5,131C 404.487,131.836 399.487,132.669 394.5,133.5C 394.918,132.778 395.584,132.278 396.5,132C 396.272,131.601 395.938,131.435 395.5,131.5 Z"/></g>
<g><path style="opacity:1" fill="#9dbe60" d="M 64.5,141.5 C 64.0945,136.104 61.0945,133.437 55.5,133.5C 59.5179,130.721 62.6846,131.721 65,136.5C 65.7796,138.387 65.6129,140.054 64.5,141.5 Z"/></g>
<g><path style="opacity:1" fill="#96c643" d="M 284.5,119.5 C 293.794,123.322 300.128,129.988 303.5,139.5C 303.224,141.33 302.557,142.997 301.5,144.5C 296.555,141.776 292.055,138.443 288,134.5C 286.212,129.609 285.045,124.609 284.5,119.5 Z"/></g>
<g><path style="opacity:1" fill="#95c641" d="M 247.5,124.5 C 255.294,127.791 261.794,132.791 267,139.5C 268.474,145.332 267.14,150.332 263,154.5C 245.444,150.979 240.277,140.979 247.5,124.5 Z"/></g>
<g><path style="opacity:1" fill="#f0cb4b" d="M 396.5,139.5 C 405.089,140.885 413.756,142.052 422.5,143C 409.959,143.877 397.626,143.377 385.5,141.5C 389.649,142.08 393.316,141.414 396.5,139.5 Z"/></g>
<g><path style="opacity:1" fill="#93c83d" d="M 337.5,145.5 C 339.497,148.825 341.497,152.159 343.5,155.5C 344.07,158.817 344.736,161.817 345.5,164.5C 344.833,164.833 344.167,165.167 343.5,165.5C 340.824,163.21 338.491,160.543 336.5,157.5C 334.929,159.345 334.095,161.345 334,163.5C 333.259,162.359 332.425,162.359 331.5,163.5C 330.323,158.773 327.323,156.773 322.5,157.5C 317.243,154.359 313.91,149.693 312.5,143.5C 312.201,141.396 312.534,139.396 313.5,137.5C 315.328,139.807 316.994,139.474 318.5,136.5C 317.383,135.051 316.716,133.384 316.5,131.5C 316.697,126.822 317.697,126.488 319.5,130.5C 318.477,132.895 319.477,133.895 322.5,133.5C 322.5,134.833 322.5,136.167 322.5,137.5C 324.604,137.201 326.604,137.534 328.5,138.5C 326.955,139.452 325.288,139.785 323.5,139.5C 323.5,140.833 323.5,142.167 323.5,143.5C 324.675,143.281 325.675,143.614 326.5,144.5C 327.109,147.837 328.276,148.17 330,145.5C 331.049,147.107 332.549,147.773 334.5,147.5C 334.423,150.012 335.423,152.012 337.5,153.5C 337.456,150.8 337.456,148.134 337.5,145.5 Z"/></g>
<g><path style="opacity:1" fill="#e7e198" d="M 424.5,143.5 C 425.833,144.167 425.833,144.167 424.5,143.5 Z"/></g>
<g><path style="opacity:1" fill="#95c740" d="M 119.5,137.5 C 124.758,138.14 129.091,140.473 132.5,144.5C 130.451,151.047 126.284,155.38 120,157.5C 109.176,157.749 106.676,153.416 112.5,144.5C 114.881,142.119 117.215,139.785 119.5,137.5 Z"/></g>
<g><path style="opacity:1" fill="#96c63f" d="M 211.5,140.5 C 217.916,142.742 223.416,146.408 228,151.5C 228.478,157.723 226.144,162.723 221,166.5C 217.653,164.94 214.153,163.773 210.5,163C 205.776,160.565 204.276,156.731 206,151.5C 207.319,147.528 209.153,143.861 211.5,140.5 Z"/></g>
<g><path style="opacity:1" fill="#94c740" d="M 55.5,133.5 C 61.0945,133.437 64.0945,136.104 64.5,141.5C 62.4764,146.208 60.4764,150.874 58.5,155.5C 54.5,156.833 50.5,156.833 46.5,155.5C 46.3966,146.791 49.3966,139.458 55.5,133.5 Z"/></g>
<g><path style="opacity:1" fill="#95c641" d="M 156.5,134.5 C 164.313,137.815 170.813,142.815 176,149.5C 176.882,156.472 175.049,162.639 170.5,168C 156.436,168.937 150.269,162.437 152,148.5C 152.818,143.549 154.318,138.882 156.5,134.5 Z"/></g>
<g><path style="opacity:1" fill="#f6c138" d="M 374.5,143.5 C 385.637,146.435 396.637,149.769 407.5,153.5C 394.842,151.002 382.175,148.835 369.5,147C 380.848,152.679 392.348,158.179 404,163.5C 405.03,163.836 405.53,164.503 405.5,165.5C 394.31,161.955 383.31,157.955 372.5,153.5C 370.437,151.918 368.104,150.585 365.5,149.5C 365.461,148.417 365.127,147.417 364.5,146.5C 368.263,146.104 371.597,145.104 374.5,143.5 Z"/></g>
<g><path style="opacity:1" fill="#f7ce62" d="M 365.5,149.5 C 368.104,150.585 370.437,151.918 372.5,153.5C 370.302,153.409 369.969,154.075 371.5,155.5C 369.821,155.285 368.821,155.952 368.5,157.5C 367.833,157.5 367.167,157.5 366.5,157.5C 365.624,157.631 364.957,157.298 364.5,156.5C 365.641,155.575 365.641,154.741 364.5,154C 367.028,152.983 367.028,151.816 364.5,150.5C 364.624,149.893 364.957,149.56 365.5,149.5 Z"/></g>
<g><path style="opacity:1" fill="#dccb9c" d="M 407.5,153.5 C 408.833,154.167 408.833,154.167 407.5,153.5 Z"/></g>
<g><path style="opacity:1" fill="#95c643" d="M 343.5,155.5 C 346.535,158.902 348.535,162.902 349.5,167.5C 347.571,167.231 345.905,167.731 344.5,169C 346.929,169.451 347.096,170.285 345,171.5C 344.161,192.802 342.994,192.802 341.5,171.5C 340.368,178.685 338.702,184.685 336.5,189.5C 334.929,183.716 333.762,177.716 333,171.5C 330.694,165.867 327.194,161.2 322.5,157.5C 327.323,156.773 330.323,158.773 331.5,163.5C 332.425,162.359 333.259,162.359 334,163.5C 334.095,161.345 334.929,159.345 336.5,157.5C 338.491,160.543 340.824,163.21 343.5,165.5C 344.167,165.167 344.833,164.833 345.5,164.5C 344.736,161.817 344.07,158.817 343.5,155.5 Z"/></g>
<g><path style="opacity:1" fill="#95c740" d="M 279.5,138.5 C 287.27,142.703 293.77,148.37 299,155.5C 302.371,161.16 302.204,166.66 298.5,172C 292.238,170.691 286.905,167.525 282.5,162.5C 281.391,160.615 280.557,158.615 280,156.5C 279.501,150.509 279.334,144.509 279.5,138.5 Z"/></g>
<g><path style="opacity:1" fill="#f7d278" d="M 358.5,161.5 C 359.72,163.282 360.386,165.282 360.5,167.5C 360.167,167.5 359.833,167.5 359.5,167.5C 358.215,166.215 356.881,164.881 355.5,163.5C 354.893,163.624 354.56,163.957 354.5,164.5C 353.094,164.027 352.427,163.027 352.5,161.5C 354.124,161.64 355.29,160.973 356,159.5C 356.417,160.756 357.25,161.423 358.5,161.5 Z"/></g>
<g><path style="opacity:1" fill="#f5eeb1" d="M 360.5,159.5 C 362.461,160.46 364.127,161.793 365.5,163.5C 364.833,163.5 364.167,163.5 363.5,163.5C 361.738,162.738 360.738,161.404 360.5,159.5 Z"/></g>
<g><path style="opacity:1" fill="#f6c33b" d="M 360.5,159.5 C 360.738,161.404 361.738,162.738 363.5,163.5C 368.377,171.555 373.877,179.221 380,186.5C 380.982,187.759 381.315,189.092 381,190.5C 374.621,182.296 367.788,174.629 360.5,167.5C 360.386,165.282 359.72,163.282 358.5,161.5C 358.238,160.022 358.571,158.689 359.5,157.5C 360.298,157.957 360.631,158.624 360.5,159.5 Z"/></g>
<g><path style="opacity:1" fill="#f4c241" d="M 371.5,155.5 C 380.054,161.202 388.387,167.202 396.5,173.5C 387.043,168.351 377.71,163.018 368.5,157.5C 368.821,155.952 369.821,155.285 371.5,155.5 Z"/></g>
<g><path style="opacity:1" fill="#edcd4a" d="M 405.5,165.5 C 407.655,165.372 409.655,165.872 411.5,167C 412.451,167.718 412.617,168.551 412,169.5C 409.562,168.432 407.395,167.098 405.5,165.5 Z"/></g>
<g><path style="opacity:1" fill="#96c642" d="M 76.5,162.5 C 81.0272,163.681 84.8605,166.014 88,169.5C 88.6667,170.833 88.6667,172.167 88,173.5C 86,175.167 84,176.833 82,178.5C 77.7681,177.422 73.7681,175.755 70,173.5C 69.3333,171.833 69.3333,170.167 70,168.5C 72.0627,166.266 74.2294,164.266 76.5,162.5 Z"/></g>
<g><path style="opacity:1" fill="#dbcf98" d="M 414.5,170.5 C 414.897,169.475 415.563,169.308 416.5,170C 415.906,170.464 415.239,170.631 414.5,170.5 Z"/></g>
<g><path style="opacity:1" fill="#95c741" d="M 309.5,155.5 C 316.174,160.007 321.674,165.674 326,172.5C 328.988,179.158 329.154,185.824 326.5,192.5C 320.469,189.969 316.302,185.635 314,179.5C 311.96,171.595 310.46,163.595 309.5,155.5 Z"/></g>
<g><path style="opacity:1" fill="#95c73f" d="M 236.5,155.5 C 245.533,159.02 253.033,164.687 259,172.5C 260.592,180.048 258.759,186.548 253.5,192C 251.833,192.667 250.167,192.667 248.5,192C 246.779,190.473 244.779,189.473 242.5,189C 236.096,184.983 233.429,179.149 234.5,171.5C 234.539,166.065 235.205,160.732 236.5,155.5 Z"/></g>
<g><path style="opacity:1" fill="#d7d285" d="M 396.5,173.5 C 397.167,173.5 397.5,173.833 397.5,174.5C 397.167,174.167 396.833,173.833 396.5,173.5 Z"/></g>
<g><path style="opacity:1" fill="#dfe39b" d="M 397.5,174.5 C 398.833,175.167 398.833,175.167 397.5,174.5 Z"/></g>
<g><path style="opacity:1" fill="#9bc151" d="M 38.5,167.5 C 37.1667,167.5 35.8333,167.5 34.5,167.5C 33.5715,172.367 32.9048,177.533 32.5,183C 32.5085,187.434 33.5085,191.601 35.5,195.5C 39.2901,197.669 43.2901,198.002 47.5,196.5C 47.9424,195.261 48.6091,194.261 49.5,193.5C 49.694,197.483 47.8606,199.483 44,199.5C 33.704,199.304 29.204,193.971 30.5,183.5C 31.0366,179.171 31.5366,174.838 32,170.5C 32.6192,165.315 34.7858,164.315 38.5,167.5 Z"/></g>
<g><path style="opacity:1" fill="#f7c232" d="M 359.5,167.5 C 363.78,177.392 368.613,187.059 374,196.5C 375.467,199.758 376.633,203.092 377.5,206.5C 372.691,198.898 367.858,191.231 363,183.5C 359.617,177.401 356.783,171.068 354.5,164.5C 354.56,163.957 354.893,163.624 355.5,163.5C 356.881,164.881 358.215,166.215 359.5,167.5 Z"/></g>
<g><path style="opacity:1" fill="#96c349" d="M 187.5,177.5 C 184.664,178.776 181.664,179.442 178.5,179.5C 177.866,185.496 177.7,191.496 178,197.5C 178.667,200.167 179.333,200.167 180,197.5C 180.176,194.118 180.676,190.785 181.5,187.5C 183.042,193.428 182.708,199.095 180.5,204.5C 179.542,204.047 178.708,203.381 178,202.5C 175.662,192.241 176.328,182.241 180,172.5C 182.824,173.818 185.324,175.485 187.5,177.5 Z"/></g>
<g><path style="opacity:1" fill="#95c741" d="M 113.5,167.5 C 118.643,168.504 122.476,171.171 125,175.5C 125.688,182.4 124.688,189.067 122,195.5C 120.647,196.704 118.981,197.371 117,197.5C 113.468,198.192 111.135,196.859 110,193.5C 108.762,184.471 109.928,175.804 113.5,167.5 Z"/></g>
<g><path style="opacity:1" fill="#96c543" d="M 149.5,175.5 C 157.064,175.62 158.231,178.287 153,183.5C 150.463,186.372 147.63,188.872 144.5,191C 141.5,191.667 138.5,191.667 135.5,191C 135.043,190.586 134.709,190.086 134.5,189.5C 138.866,184.134 143.866,179.467 149.5,175.5 Z"/></g>
<g><path style="opacity:1" fill="#94c73f" d="M 187.5,177.5 C 202.128,185.457 204.461,196.291 194.5,210C 188.791,210.601 184.124,208.768 180.5,204.5C 182.708,199.095 183.042,193.428 181.5,187.5C 180.676,190.785 180.176,194.118 180,197.5C 179.333,200.167 178.667,200.167 178,197.5C 177.7,191.496 177.866,185.496 178.5,179.5C 181.664,179.442 184.664,178.776 187.5,177.5 Z"/></g>
<g><path style="opacity:1" fill="#94c840" d="M 38.5,167.5 C 51.0521,172.588 54.7188,181.255 49.5,193.5C 48.6091,194.261 47.9424,195.261 47.5,196.5C 43.2901,198.002 39.2901,197.669 35.5,195.5C 33.5085,191.601 32.5085,187.434 32.5,183C 32.9048,177.533 33.5715,172.367 34.5,167.5C 35.8333,167.5 37.1667,167.5 38.5,167.5 Z"/></g>
<g><path style="opacity:1" fill="#e9dc77" d="M 395.5,187.5 C 397.337,187.639 397.67,188.306 396.5,189.5C 395.702,189.043 395.369,188.376 395.5,187.5 Z"/></g>
<g><path style="opacity:1" fill="#95c740" d="M 269.5,165.5 C 278.123,170.956 285.29,177.956 291,186.5C 292.423,194.48 290.59,201.48 285.5,207.5C 278.639,205.324 273.139,201.324 269,195.5C 267.216,185.476 267.382,175.476 269.5,165.5 Z"/></g>
<g><path style="opacity:1" fill="#dbd293" d="M 399.5,191.5 C 398.833,190.167 398.833,190.167 399.5,191.5 Z"/></g>
<g><path style="opacity:1" fill="#c4cc64" d="M 399.5,191.5 C 400.167,191.5 400.5,191.833 400.5,192.5C 400.167,192.167 399.833,191.833 399.5,191.5 Z"/></g>
<g><path style="opacity:1" fill="#c9cf70" d="M 400.5,192.5 C 401.833,193.167 401.833,193.167 400.5,192.5 Z"/></g>
<g><path style="opacity:1" fill="#95c83d" d="M 349.5,167.5 C 359.41,188.966 363.077,211.633 360.5,235.5C 358.847,225.198 357.847,214.532 357.5,203.5C 356.833,214.167 356.167,224.833 355.5,235.5C 353.841,214.208 352.841,214.208 352.5,235.5C 351.188,233.257 350.522,230.59 350.5,227.5C 351.748,219.527 351.748,212.027 350.5,205C 352.619,202.782 352.952,200.282 351.5,197.5C 350.921,200.588 349.587,203.255 347.5,205.5C 346.851,203.376 346.017,201.376 345,199.5C 344.176,202.882 344.343,206.216 345.5,209.5C 348.986,213.046 349.486,217.046 347,221.5C 345.968,219.973 344.801,218.64 343.5,217.5C 343.167,217.5 342.833,217.5 342.5,217.5C 343.289,211.974 342.122,206.974 339,202.5C 337.847,198.213 337.013,193.879 336.5,189.5C 338.702,184.685 340.368,178.685 341.5,171.5C 342.994,192.802 344.161,192.802 345,171.5C 347.096,170.285 346.929,169.451 344.5,169C 345.905,167.731 347.571,167.231 349.5,167.5 Z"/></g>
<g><path style="opacity:1" fill="#d9da94" d="M 383.5,192.5 C 384.525,192.897 384.692,193.563 384,194.5C 383.536,193.906 383.369,193.239 383.5,192.5 Z"/></g>
<g><path style="opacity:1" fill="#9fc15d" d="M 93.5,201.5 C 99.3233,201.264 103.657,203.931 106.5,209.5C 102.643,206.267 98.3096,203.6 93.5,201.5 Z"/></g>
<g><path style="opacity:1" fill="#95c740" d="M 216.5,184.5 C 225.039,189.202 232.206,195.535 238,203.5C 238.913,209.042 238.246,214.375 236,219.5C 234.381,221.772 232.548,223.772 230.5,225.5C 224.145,223.755 218.978,220.422 215,215.5C 212.822,205.023 213.322,194.689 216.5,184.5 Z"/></g>
<g><path style="opacity:1" fill="#9fc25b" d="M 304.5,187.5 C 304.321,198.19 304.655,208.857 305.5,219.5C 304.139,215.213 303.139,210.713 302.5,206C 303.066,199.676 303.732,193.509 304.5,187.5 Z"/></g>
<g><path style="opacity:1" fill="#d8d187" d="M 377.5,206.5 C 378.833,207.167 378.833,207.167 377.5,206.5 Z"/></g>
<g><path style="opacity:1" fill="#95c740" d="M 305.5,219.5 C 304.655,208.857 304.321,198.19 304.5,187.5C 304.369,186.761 304.536,186.094 305,185.5C 313.746,192.513 319.579,201.346 322.5,212C 321.91,217.701 320.243,223.035 317.5,228C 315.711,228.52 314.044,228.187 312.5,227C 309.933,224.604 307.6,222.104 305.5,219.5 Z"/></g>
<g><path style="opacity:1" fill="#dee09b" d="M 379.5,210.5 C 380.833,211.167 380.833,211.167 379.5,210.5 Z"/></g>
<g><path style="opacity:1" fill="#98c448" d="M 57.5,208.5 C 62.0115,210.497 65.8449,213.497 69,217.5C 72.5595,222.787 75.7262,228.287 78.5,234C 76.5826,233.973 74.916,233.139 73.5,231.5C 66.5165,224.872 61.1832,217.205 57.5,208.5 Z"/></g>
<g><path style="opacity:1" fill="#95c743" d="M 93.5,201.5 C 98.3096,203.6 102.643,206.267 106.5,209.5C 108.232,215.384 108.732,221.384 108,227.5C 106.936,231.295 104.436,232.461 100.5,231C 97.5332,228.9 95.6998,226.066 95,222.5C 94.0066,218.194 93.1733,213.861 92.5,209.5C 93.0779,206.565 93.4112,203.899 93.5,201.5 Z"/></g>
<g><path style="opacity:1" fill="#95c741" d="M 254.5,201.5 C 262.818,206.485 269.485,213.151 274.5,221.5C 276.575,230.678 274.075,238.345 267,244.5C 262.364,242.738 258.197,240.238 254.5,237C 250.788,231.038 249.621,224.538 251,217.5C 251.855,212.081 253.022,206.748 254.5,201.5 Z"/></g>
<g><path style="opacity:1" fill="#94c740" d="M 352.5,235.5 C 352.5,236.833 352.5,238.167 352.5,239.5C 350.876,239.64 349.71,238.973 349,237.5C 347.331,239.169 346.498,241.169 346.5,243.5C 347.5,243.5 348.5,243.5 349.5,243.5C 349.5,244.833 349.5,246.167 349.5,247.5C 350.5,247.5 351.5,247.5 352.5,247.5C 352.145,249.89 351.478,252.223 350.5,254.5C 352.064,258.675 352.731,263.008 352.5,267.5C 346.947,282.953 338.614,296.62 327.5,308.5C 327.297,306.61 327.963,305.11 329.5,304C 328.949,302.602 328.616,301.268 328.5,300C 329.308,299.692 329.975,299.192 330.5,298.5C 328.827,296.477 328.16,294.144 328.5,291.5C 331.664,291.558 334.664,292.224 337.5,293.5C 337.5,292.167 337.5,290.833 337.5,289.5C 335.857,289.52 334.524,288.853 333.5,287.5C 332.522,287.977 331.689,288.643 331,289.5C 329.485,286.823 328.985,284.157 329.5,281.5C 330.842,283.005 332.508,283.672 334.5,283.5C 335.874,279.552 334.874,276.219 331.5,273.5C 334.401,266.361 336.734,259.028 338.5,251.5C 340.335,250.878 341.502,249.544 342,247.5C 342.333,244.833 342.667,242.167 343,239.5C 343.645,238.354 344.478,237.354 345.5,236.5C 345,236.167 344.5,235.833 344,235.5C 342.403,236.885 340.57,237.551 338.5,237.5C 339.21,234.14 337.876,232.307 334.5,232C 335.833,231.333 336.833,230.333 337.5,229C 335.776,228.552 335.109,227.718 335.5,226.5C 333.895,227.587 333.229,226.921 333.5,224.5C 333.833,223.5 334.167,222.5 334.5,221.5C 336.721,224.739 339.721,225.906 343.5,225C 344.136,222.606 344.136,220.106 343.5,217.5C 344.801,218.64 345.968,219.973 347,221.5C 349.486,217.046 348.986,213.046 345.5,209.5C 344.343,206.216 344.176,202.882 345,199.5C 346.017,201.376 346.851,203.376 347.5,205.5C 349.587,203.255 350.921,200.588 351.5,197.5C 352.952,200.282 352.619,202.782 350.5,205C 351.748,212.027 351.748,219.527 350.5,227.5C 350.522,230.59 351.188,233.257 352.5,235.5 Z"/></g>
<g><path style="opacity:1" fill="#95c741" d="M 183.5,248.5 C 180.763,248.599 178.096,248.265 175.5,247.5C 170.79,245.471 167.957,241.804 167,236.5C 165.164,228.151 165.164,219.817 167,211.5C 174.876,215.046 181.209,220.379 186,227.5C 187.574,234.735 186.741,241.735 183.5,248.5 Z"/></g>
<g><path style="opacity:1" fill="#93c93a" d="M 138.5,241.5 C 134.105,237.987 132.105,233.32 132.5,227.5C 131.863,222.999 132.863,218.999 135.5,215.5C 136.225,219.532 137.058,223.532 138,227.5C 138.182,224.774 138.682,222.107 139.5,219.5C 140.623,217.711 141.956,217.378 143.5,218.5C 142.82,220.889 141.986,223.222 141,225.5C 140.782,229.275 140.616,232.942 140.5,236.5C 141.5,237.5 142.5,238.5 143.5,239.5C 147.315,233.835 148.982,234.502 148.5,241.5C 145.167,241.5 141.833,241.5 138.5,241.5 Z"/></g>
<g><path style="opacity:1" fill="#96c546" d="M 138.5,241.5 C 141.833,241.5 145.167,241.5 148.5,241.5C 148.982,234.502 147.315,233.835 143.5,239.5C 142.5,238.5 141.5,237.5 140.5,236.5C 140.616,232.942 140.782,229.275 141,225.5C 141.986,223.222 142.82,220.889 143.5,218.5C 141.956,217.378 140.623,217.711 139.5,219.5C 138.682,222.107 138.182,224.774 138,227.5C 137.058,223.532 136.225,219.532 135.5,215.5C 132.863,218.999 131.863,222.999 132.5,227.5C 131.565,222.006 130.898,216.339 130.5,210.5C 148.311,214.663 154.478,225.663 149,243.5C 145.854,244.549 142.688,244.383 139.5,243C 138.944,242.617 138.611,242.117 138.5,241.5 Z"/></g>
<g><path style="opacity:1" fill="#95c73f" d="M 290.5,221.5 C 297.329,226.798 302.496,233.465 306,241.5C 307.046,250.851 303.88,258.518 296.5,264.5C 286.98,260.132 283.48,252.799 286,242.5C 287.563,235.521 289.063,228.521 290.5,221.5 Z"/></g>
<g><path style="opacity:1" fill="#93c83e" d="M 204.5,225.5 C 213.18,229.348 218.846,235.848 221.5,245C 221.212,247.187 220.878,249.354 220.5,251.5C 218.223,250.021 215.89,248.521 213.5,247C 213.833,246.667 214.167,246.333 214.5,246C 212.598,242.745 211.265,239.245 210.5,235.5C 208.654,235.222 207.32,235.889 206.5,237.5C 207.35,239.621 208.35,241.788 209.5,244C 207.234,246.391 205.067,248.891 203,251.5C 202.333,246.167 201.667,246.167 201,251.5C 200.169,243.112 200.503,234.779 202,226.5C 202.671,225.748 203.504,225.414 204.5,225.5 Z"/></g>
<g><path style="opacity:1" fill="#96c745" d="M 342.5,217.5 C 342.833,217.5 343.167,217.5 343.5,217.5C 344.136,220.106 344.136,222.606 343.5,225C 339.721,225.906 336.721,224.739 334.5,221.5C 334.167,222.5 333.833,223.5 333.5,224.5C 333.229,226.921 333.895,227.587 335.5,226.5C 335.109,227.718 335.776,228.552 337.5,229C 336.833,230.333 335.833,231.333 334.5,232C 337.876,232.307 339.21,234.14 338.5,237.5C 340.57,237.551 342.403,236.885 344,235.5C 344.5,235.833 345,236.167 345.5,236.5C 344.478,237.354 343.645,238.354 343,239.5C 342.667,242.167 342.333,244.833 342,247.5C 341.502,249.544 340.335,250.878 338.5,251.5C 338.33,250.178 338.663,249.011 339.5,248C 334.173,246.989 331.006,243.489 330,237.5C 330.036,228.844 330.369,220.178 331,211.5C 331.202,209.744 331.702,208.078 332.5,206.5C 335.504,210.503 338.004,214.837 340,219.5C 341.813,220.609 342.646,219.942 342.5,217.5 Z"/></g>
<g><path style="opacity:1" fill="#94c743" d="M 360.5,235.5 C 359.528,246.718 356.861,257.385 352.5,267.5C 352.731,263.008 352.064,258.675 350.5,254.5C 351.478,252.223 352.145,249.89 352.5,247.5C 351.5,247.5 350.5,247.5 349.5,247.5C 349.5,246.167 349.5,244.833 349.5,243.5C 348.5,243.5 347.5,243.5 346.5,243.5C 346.498,241.169 347.331,239.169 349,237.5C 349.71,238.973 350.876,239.64 352.5,239.5C 352.5,238.167 352.5,236.833 352.5,235.5C 352.841,214.208 353.841,214.208 355.5,235.5C 356.167,224.833 356.833,214.167 357.5,203.5C 357.847,214.532 358.847,225.198 360.5,235.5 Z"/></g>
<g><path style="opacity:1" fill="#22205c" d="M 91.5,245.5 C 94.8333,245.5 98.1667,245.5 101.5,245.5C 105.921,247.102 110.588,248.102 115.5,248.5C 118.167,250.167 120.833,251.833 123.5,253.5C 122.081,254.451 120.415,254.784 118.5,254.5C 115.203,254.671 114.869,254.005 117.5,252.5C 116.667,252.167 115.833,251.833 115,251.5C 107.091,250.707 99.2577,249.707 91.5,248.5C 91.5,247.5 91.5,246.5 91.5,245.5 Z"/></g>
<g><path style="opacity:0.617" fill="#e4e7ed" d="M 91.5,245.5 C 95.3188,244.834 99.3188,244.501 103.5,244.5C 127.498,245.616 151.498,246.616 175.5,247.5C 178.096,248.265 180.763,248.599 183.5,248.5C 188.299,248.899 192.299,250.899 195.5,254.5C 194.391,254.557 193.391,254.89 192.5,255.5C 191.833,255.167 191.167,254.833 190.5,254.5C 189.074,253.659 187.74,252.659 186.5,251.5C 185.833,251.167 185.167,250.833 184.5,250.5C 180.6,249.18 176.6,248.847 172.5,249.5C 171.448,249.351 170.448,249.517 169.5,250C 171.527,251.879 173.86,253.046 176.5,253.5C 176.328,254.492 176.662,255.158 177.5,255.5C 177.5,256.167 177.833,256.5 178.5,256.5C 178.158,257.338 177.492,257.672 176.5,257.5C 175.167,256.833 173.833,256.167 172.5,255.5C 170.312,254.377 167.979,254.377 165.5,255.5C 156.833,255.5 148.167,255.5 139.5,255.5C 137.901,255.768 136.568,255.434 135.5,254.5C 137.833,254.5 140.167,254.5 142.5,254.5C 149.451,255.066 156.118,254.399 162.5,252.5C 164.738,253.537 167.071,253.703 169.5,253C 166.963,251.543 164.296,250.376 161.5,249.5C 159.95,248.28 158.284,248.28 156.5,249.5C 146.579,248.014 136.579,247.348 126.5,247.5C 123.36,246.359 120.027,246.192 116.5,247C 120.195,249.51 123.862,252.01 127.5,254.5C 128.398,255.158 129.398,255.824 130.5,256.5C 130.376,257.107 130.043,257.44 129.5,257.5C 128.85,257.196 128.183,256.863 127.5,256.5C 119.215,257.304 110.882,257.804 102.5,258C 103.056,258.383 103.389,258.883 103.5,259.5C 102.833,259.5 102.167,259.5 101.5,259.5C 100.473,257.806 99.1392,256.473 97.5,255.5C 102.833,255.5 108.167,255.5 113.5,255.5C 115.167,255.5 116.833,255.5 118.5,255.5C 120.604,255.799 122.604,255.466 124.5,254.5C 124.376,253.893 124.043,253.56 123.5,253.5C 120.833,251.833 118.167,250.167 115.5,248.5C 111.307,245.91 106.64,244.91 101.5,245.5C 98.1667,245.5 94.8333,245.5 91.5,245.5 Z"/></g>
<g><path style="opacity:1" fill="#435c9e" d="M 101.5,245.5 C 106.64,244.91 111.307,245.91 115.5,248.5C 110.588,248.102 105.921,247.102 101.5,245.5 Z"/></g>
<g><path style="opacity:1" fill="#96c645" d="M 204.5,225.5 C 203.504,225.414 202.671,225.748 202,226.5C 200.503,234.779 200.169,243.112 201,251.5C 201.667,246.167 202.333,246.167 203,251.5C 205.067,248.891 207.234,246.391 209.5,244C 208.35,241.788 207.35,239.621 206.5,237.5C 207.32,235.889 208.654,235.222 210.5,235.5C 211.265,239.245 212.598,242.745 214.5,246C 214.167,246.333 213.833,246.667 213.5,247C 215.89,248.521 218.223,250.021 220.5,251.5C 218.954,255.218 216.787,258.551 214,261.5C 203.204,259.38 198.037,252.88 198.5,242C 198.747,235.348 199.747,228.848 201.5,222.5C 203.213,222.879 204.213,223.879 204.5,225.5 Z"/></g>
<g><path style="opacity:1" fill="#2a2240" d="M 91.5,245.5 C 91.5,246.5 91.5,247.5 91.5,248.5C 99.2577,249.707 107.091,250.707 115,251.5C 115.833,251.833 116.667,252.167 117.5,252.5C 114.869,254.005 115.203,254.671 118.5,254.5C 118.5,254.833 118.5,255.167 118.5,255.5C 116.833,255.5 115.167,255.5 113.5,255.5C 113.611,254.883 113.944,254.383 114.5,254C 105.589,253.583 96.9227,252.083 88.5,249.5C 87.6679,247.275 88.6679,245.942 91.5,245.5 Z"/></g>
<g><path style="opacity:1" fill="#272764" d="M 126.5,247.5 C 136.579,247.348 146.579,248.014 156.5,249.5C 157.936,250.429 159.269,251.595 160.5,253C 157.854,253.497 155.187,253.664 152.5,253.5C 144.253,250.389 135.587,248.889 126.5,249C 123.903,248.221 123.903,247.721 126.5,247.5 Z"/></g>
<g><path style="opacity:1" fill="#231f28" d="M 88.5,249.5 C 96.9227,252.083 105.589,253.583 114.5,254C 113.944,254.383 113.611,254.883 113.5,255.5C 108.167,255.5 102.833,255.5 97.5,255.5C 95.178,253.336 92.5113,251.669 89.5,250.5C 88.8333,250.5 88.5,250.167 88.5,249.5 Z"/></g>
<g><path style="opacity:1" fill="#242036" d="M 126.5,247.5 C 123.903,247.721 123.903,248.221 126.5,249C 135.587,248.889 144.253,250.389 152.5,253.5C 148.958,253.187 145.625,253.521 142.5,254.5C 140.167,254.5 137.833,254.5 135.5,254.5C 132.833,254.5 130.167,254.5 127.5,254.5C 123.862,252.01 120.195,249.51 116.5,247C 120.027,246.192 123.36,246.359 126.5,247.5 Z"/></g>
<g><path style="opacity:1" fill="#3a3251" d="M 172.5,249.5 C 174.139,250.473 175.473,251.806 176.5,253.5C 173.86,253.046 171.527,251.879 169.5,250C 170.448,249.517 171.448,249.351 172.5,249.5 Z"/></g>
<g><path style="opacity:1" fill="#211a3f" d="M 184.5,250.5 C 185.167,250.833 185.833,251.167 186.5,251.5C 183.492,252.921 180.492,252.754 177.5,251C 179.81,250.503 182.143,250.337 184.5,250.5 Z"/></g>
<g><path style="opacity:1" fill="#95c741" d="M 236.5,237.5 C 245.404,243.068 251.737,250.735 255.5,260.5C 254.94,264.089 253.773,267.422 252,270.5C 249.914,273.406 247.414,275.739 244.5,277.5C 239.293,275.478 235.126,272.145 232,267.5C 231.333,264.167 231.333,260.833 232,257.5C 233.609,250.843 235.109,244.176 236.5,237.5 Z"/></g>
<g><path style="opacity:1" fill="#2d283f" d="M 161.5,249.5 C 164.296,250.376 166.963,251.543 169.5,253C 167.071,253.703 164.738,253.537 162.5,252.5C 161.942,251.21 160.942,250.377 159.5,250C 160.094,249.536 160.761,249.369 161.5,249.5 Z"/></g>
<g><path style="opacity:1" fill="#a4a4b3" d="M 161.5,249.5 C 160.761,249.369 160.094,249.536 159.5,250C 160.942,250.377 161.942,251.21 162.5,252.5C 156.118,254.399 149.451,255.066 142.5,254.5C 145.625,253.521 148.958,253.187 152.5,253.5C 155.187,253.664 157.854,253.497 160.5,253C 159.269,251.595 157.936,250.429 156.5,249.5C 158.284,248.28 159.95,248.28 161.5,249.5 Z"/></g>
<g><path style="opacity:1" fill="#d0d0d8" d="M 184.5,250.5 C 182.143,250.337 179.81,250.503 177.5,251C 180.492,252.754 183.492,252.921 186.5,251.5C 187.74,252.659 189.074,253.659 190.5,254.5C 188.143,254.337 185.81,254.503 183.5,255C 186.663,257.416 189.996,259.582 193.5,261.5C 195.115,260.846 196.782,260.346 198.5,260C 196.253,258.723 194.253,257.223 192.5,255.5C 193.391,254.89 194.391,254.557 195.5,254.5C 198.871,256.846 202.204,259.179 205.5,261.5C 205.672,262.492 205.338,263.158 204.5,263.5C 202.906,263.08 201.406,262.414 200,261.5C 195.482,263.873 195.982,265.54 201.5,266.5C 200.359,267.339 199.026,268.006 197.5,268.5C 196.893,268.376 196.56,268.043 196.5,267.5C 196.938,267.565 197.272,267.399 197.5,267C 195.833,265.833 194.167,264.667 192.5,263.5C 191.479,264.002 191.312,264.668 192,265.5C 193.302,266.085 194.469,266.751 195.5,267.5C 194.209,267.263 193.209,267.596 192.5,268.5C 190.598,267.632 188.765,266.632 187,265.5C 183.758,266.793 183.925,267.793 187.5,268.5C 188.306,269.728 189.306,270.728 190.5,271.5C 189.833,271.5 189.5,271.833 189.5,272.5C 186.468,269.485 182.801,267.818 178.5,267.5C 178.5,267.167 178.5,266.833 178.5,266.5C 179.167,266.5 179.5,266.167 179.5,265.5C 179.5,265.167 179.5,264.833 179.5,264.5C 181.527,264.662 183.527,264.495 185.5,264C 183.283,262.277 180.95,260.777 178.5,259.5C 177.833,258.833 177.167,258.167 176.5,257.5C 177.492,257.672 178.158,257.338 178.5,256.5C 181.472,258.322 184.472,260.156 187.5,262C 188.5,262.667 189.5,262.667 190.5,262C 187.167,259.667 183.833,257.333 180.5,255C 179.251,254.26 178.251,254.427 177.5,255.5C 176.662,255.158 176.328,254.492 176.5,253.5C 175.473,251.806 174.139,250.473 172.5,249.5C 176.6,248.847 180.6,249.18 184.5,250.5 Z"/></g>
<g><path style="opacity:1" fill="#837683" d="M 123.5,253.5 C 124.043,253.56 124.376,253.893 124.5,254.5C 122.604,255.466 120.604,255.799 118.5,255.5C 118.5,255.167 118.5,254.833 118.5,254.5C 120.415,254.784 122.081,254.451 123.5,253.5 Z"/></g>
<g><path style="opacity:1" fill="#c7c6c7" d="M 89.5,250.5 C 92.5113,251.669 95.178,253.336 97.5,255.5C 96.7611,255.369 96.0944,255.536 95.5,256C 97.3911,257.442 99.3911,258.609 101.5,259.5C 103.296,261.9 105.63,263.567 108.5,264.5C 109.625,265.652 109.625,266.652 108.5,267.5C 103.156,263.399 97.6559,259.399 92,255.5C 91.5357,256.094 91.369,256.761 91.5,257.5C 90.2947,256.328 90.2947,254.995 91.5,253.5C 90.8075,252.482 90.1408,251.482 89.5,250.5 Z"/></g>
<g><path style="opacity:1" fill="#355597" d="M 139.5,256.5 C 139.5,256.167 139.5,255.833 139.5,255.5C 148.167,255.5 156.833,255.5 165.5,255.5C 166.306,256.728 167.306,257.728 168.5,258.5C 167.735,258.923 166.902,259.257 166,259.5C 157.354,256.949 148.521,255.949 139.5,256.5 Z"/></g>
<g><path style="opacity:1" fill="#241f42" d="M 190.5,254.5 C 191.167,254.833 191.833,255.167 192.5,255.5C 194.253,257.223 196.253,258.723 198.5,260C 196.782,260.346 195.115,260.846 193.5,261.5C 189.996,259.582 186.663,257.416 183.5,255C 185.81,254.503 188.143,254.337 190.5,254.5 Z"/></g>
<g><path style="opacity:1" fill="#232223" d="M 97.5,255.5 C 99.1392,256.473 100.473,257.806 101.5,259.5C 99.3911,258.609 97.3911,257.442 95.5,256C 96.0944,255.536 96.7611,255.369 97.5,255.5 Z"/></g>
<g><path style="opacity:1" fill="#95c743" d="M 65.5,240.5 C 71.8509,242 76.6842,245.666 80,251.5C 81.9049,257.374 83.0716,263.374 83.5,269.5C 78.1513,269.491 74.4847,266.991 72.5,262C 68.8678,255.27 66.5344,248.103 65.5,240.5 Z"/></g>
<g><path style="opacity:1" fill="#232368" d="M 138.5,256.5 C 138.833,256.5 139.167,256.5 139.5,256.5C 148.521,255.949 157.354,256.949 166,259.5C 166.902,259.257 167.735,258.923 168.5,258.5C 171.135,259.811 173.469,261.478 175.5,263.5C 165.407,262.308 155.24,260.308 145,257.5C 142.385,259.129 140.218,258.796 138.5,256.5 Z"/></g>
<g><path style="opacity:1" fill="#a5acbe" d="M 172.5,255.5 C 171.127,255.343 169.793,255.51 168.5,256C 170.391,257.442 172.391,258.609 174.5,259.5C 176.36,260.939 178.027,262.605 179.5,264.5C 179.5,264.833 179.5,265.167 179.5,265.5C 179.167,265.5 178.833,265.5 178.5,265.5C 178.027,264.094 177.027,263.427 175.5,263.5C 173.469,261.478 171.135,259.811 168.5,258.5C 167.306,257.728 166.306,256.728 165.5,255.5C 167.979,254.377 170.312,254.377 172.5,255.5 Z"/></g>
<g><path style="opacity:1" fill="#28245d" d="M 172.5,255.5 C 173.833,256.167 175.167,256.833 176.5,257.5C 177.167,258.167 177.833,258.833 178.5,259.5C 177.368,260.354 176.035,260.354 174.5,259.5C 172.391,258.609 170.391,257.442 168.5,256C 169.793,255.51 171.127,255.343 172.5,255.5 Z"/></g>
<g><path style="opacity:1" fill="#2a2846" d="M 178.5,256.5 C 177.833,256.5 177.5,256.167 177.5,255.5C 178.251,254.427 179.251,254.26 180.5,255C 183.833,257.333 187.167,259.667 190.5,262C 189.5,262.667 188.5,262.667 187.5,262C 184.472,260.156 181.472,258.322 178.5,256.5 Z"/></g>
<g><path style="opacity:1" fill="#6b6a71" d="M 101.5,259.5 C 102.167,259.5 102.833,259.5 103.5,259.5C 104.609,259.557 105.609,259.89 106.5,260.5C 108.205,262.192 110.205,263.525 112.5,264.5C 112.833,265.167 113.167,265.833 113.5,266.5C 111.833,265.833 110.167,265.167 108.5,264.5C 105.63,263.567 103.296,261.9 101.5,259.5 Z"/></g>
<g><path style="opacity:1" fill="#253179" d="M 129.5,257.5 C 132.167,259.5 134.833,261.5 137.5,263.5C 137.53,264.497 137.03,265.164 136,265.5C 127.696,262.814 119.196,260.814 110.5,259.5C 108.955,259.511 107.622,259.844 106.5,260.5C 105.609,259.89 104.609,259.557 103.5,259.5C 103.389,258.883 103.056,258.383 102.5,258C 110.882,257.804 119.215,257.304 127.5,256.5C 128.183,256.863 128.85,257.196 129.5,257.5 Z"/></g>
<g><path style="opacity:1" fill="#24192e" d="M 174.5,259.5 C 176.035,260.354 177.368,260.354 178.5,259.5C 180.95,260.777 183.283,262.277 185.5,264C 183.527,264.495 181.527,264.662 179.5,264.5C 178.027,262.605 176.36,260.939 174.5,259.5 Z"/></g>
<g><path style="opacity:0.992" fill="#ededef" d="M 205.5,261.5 C 208.047,262.934 210.381,264.6 212.5,266.5C 211.833,266.833 211.167,267.167 210.5,267.5C 208.833,266.167 207.167,266.167 205.5,267.5C 203.787,268.305 202.121,269.305 200.5,270.5C 200.624,271.107 200.957,271.44 201.5,271.5C 202.833,272.5 204.167,273.5 205.5,274.5C 206.29,275.401 207.29,276.068 208.5,276.5C 212.382,278.934 216.048,281.601 219.5,284.5C 218.508,284.328 217.842,284.662 217.5,285.5C 216.609,284.89 215.609,284.557 214.5,284.5C 212.14,282.147 209.473,280.147 206.5,278.5C 205.833,277.833 205.167,277.167 204.5,276.5C 201.993,275.108 199.327,274.108 196.5,273.5C 195.662,273.842 195.328,274.508 195.5,275.5C 192.911,275.461 190.911,276.461 189.5,278.5C 188.167,279.167 186.833,279.833 185.5,280.5C 182.5,282.5 179.5,284.5 176.5,286.5C 175.662,286.842 175.328,287.508 175.5,288.5C 172.592,289.287 169.926,290.62 167.5,292.5C 165.31,293.748 164.977,295.414 166.5,297.5C 166.5,299.167 166.5,300.833 166.5,302.5C 164.004,301.42 161.67,300.086 159.5,298.5C 158.71,297.599 157.71,296.932 156.5,296.5C 154.678,294.99 152.678,293.657 150.5,292.5C 148.861,291.527 147.527,290.194 146.5,288.5C 151.16,289.167 155.826,289.333 160.5,289C 162.727,288.059 164.727,286.892 166.5,285.5C 166.833,285.5 167.167,285.5 167.5,285.5C 168.167,284.833 168.833,284.167 169.5,283.5C 172.395,282.601 175.062,281.267 177.5,279.5C 180.203,277.819 182.869,276.153 185.5,274.5C 187.153,274.34 188.486,273.674 189.5,272.5C 189.5,271.833 189.833,271.5 190.5,271.5C 191.833,271.5 192.5,270.833 192.5,269.5C 192.5,269.167 192.5,268.833 192.5,268.5C 193.209,267.596 194.209,267.263 195.5,267.5C 195.833,267.5 196.167,267.5 196.5,267.5C 196.56,268.043 196.893,268.376 197.5,268.5C 199.026,268.006 200.359,267.339 201.5,266.5C 202.694,265.728 203.694,264.728 204.5,263.5C 205.338,263.158 205.672,262.492 205.5,261.5 Z"/></g>
<g><path style="opacity:1" fill="#252049" d="M 138.5,256.5 C 140.218,258.796 142.385,259.129 145,257.5C 155.24,260.308 165.407,262.308 175.5,263.5C 177.027,263.427 178.027,264.094 178.5,265.5C 175.208,264.404 172.208,265.071 169.5,267.5C 163.693,265.514 157.859,263.847 152,262.5C 149.883,263.343 147.55,263.677 145,263.5C 142.129,261.482 138.962,260.148 135.5,259.5C 133.804,259.315 132.471,258.481 131.5,257C 133.81,256.503 136.143,256.337 138.5,256.5 Z"/></g>
<g><path style="opacity:1" fill="#2c2648" d="M 204.5,263.5 C 203.694,264.728 202.694,265.728 201.5,266.5C 195.982,265.54 195.482,263.873 200,261.5C 201.406,262.414 202.906,263.08 204.5,263.5 Z"/></g>
<g><path style="opacity:1" fill="#525251" d="M 108.5,267.5 C 107.833,267.5 107.5,267.833 107.5,268.5C 102.129,264.821 96.7961,261.154 91.5,257.5C 91.369,256.761 91.5357,256.094 92,255.5C 97.6559,259.399 103.156,263.399 108.5,267.5 Z"/></g>
<g><path style="opacity:1" fill="#312d47" d="M 196.5,267.5 C 196.167,267.5 195.833,267.5 195.5,267.5C 194.469,266.751 193.302,266.085 192,265.5C 191.312,264.668 191.479,264.002 192.5,263.5C 194.167,264.667 195.833,265.833 197.5,267C 197.272,267.399 196.938,267.565 196.5,267.5 Z"/></g>
<g><path style="opacity:1" fill="#252052" d="M 137.5,263.5 C 139.772,264.441 141.772,265.774 143.5,267.5C 143.083,268.124 142.416,268.457 141.5,268.5C 131.778,267.491 122.112,266.157 112.5,264.5C 110.205,263.525 108.205,262.192 106.5,260.5C 107.622,259.844 108.955,259.511 110.5,259.5C 119.196,260.814 127.696,262.814 136,265.5C 137.03,265.164 137.53,264.497 137.5,263.5 Z"/></g>
<g><path style="opacity:1" fill="#96c641" d="M 319.5,242.5 C 331.145,257.059 330.145,270.726 316.5,283.5C 311.992,280.985 309.992,277.152 310.5,272C 312.389,261.833 315.389,251.999 319.5,242.5 Z"/></g>
<g><path style="opacity:1" fill="#231e2c" d="M 135.5,259.5 C 138.962,260.148 142.129,261.482 145,263.5C 147.55,263.677 149.883,263.343 152,262.5C 157.859,263.847 163.693,265.514 169.5,267.5C 172.208,265.071 175.208,264.404 178.5,265.5C 178.833,265.5 179.167,265.5 179.5,265.5C 179.5,266.167 179.167,266.5 178.5,266.5C 171.058,268.904 163.558,271.237 156,273.5C 148.725,269.376 141.891,264.709 135.5,259.5 Z"/></g>
<g><path style="opacity:1" fill="#261e53" d="M 192.5,268.5 C 192.5,268.833 192.5,269.167 192.5,269.5C 190.883,268.962 189.216,268.629 187.5,268.5C 183.925,267.793 183.758,266.793 187,265.5C 188.765,266.632 190.598,267.632 192.5,268.5 Z"/></g>
<g><path style="opacity:1" fill="#2c2828" d="M 187.5,268.5 C 189.216,268.629 190.883,268.962 192.5,269.5C 192.5,270.833 191.833,271.5 190.5,271.5C 189.306,270.728 188.306,269.728 187.5,268.5 Z"/></g>
<g><path style="opacity:1" fill="#24203b" d="M 210.5,267.5 C 210.493,273.311 208.493,273.811 204.5,269C 205.056,268.617 205.389,268.117 205.5,267.5C 207.167,266.167 208.833,266.167 210.5,267.5 Z"/></g>
<g><path style="opacity:1" fill="#24296b" d="M 178.5,267.5 C 182.801,267.818 186.468,269.485 189.5,272.5C 188.486,273.674 187.153,274.34 185.5,274.5C 181.585,273.733 177.585,273.233 173.5,273C 172.619,272.292 171.953,271.458 171.5,270.5C 174.206,270.113 176.539,269.113 178.5,267.5 Z"/></g>
<g><path style="opacity:1" fill="#20193f" d="M 201.5,271.5 C 201.56,270.957 201.893,270.624 202.5,270.5C 204.167,271.667 205.833,272.833 207.5,274C 206.906,274.464 206.239,274.631 205.5,274.5C 204.167,273.5 202.833,272.5 201.5,271.5 Z"/></g>
<g><path style="opacity:1" fill="#241e39" d="M 112.5,264.5 C 122.112,266.157 131.778,267.491 141.5,268.5C 142.416,268.457 143.083,268.124 143.5,267.5C 146.621,269.448 149.621,271.615 152.5,274C 152.272,274.399 151.938,274.565 151.5,274.5C 149.08,274.292 146.747,274.626 144.5,275.5C 143.41,274.273 142.076,273.44 140.5,273C 134.176,272.001 127.843,271.168 121.5,270.5C 118.833,269.167 116.167,267.833 113.5,266.5C 113.167,265.833 112.833,265.167 112.5,264.5 Z"/></g>
<g><path style="opacity:1" fill="#adadb9" d="M 127.5,254.5 C 130.167,254.5 132.833,254.5 135.5,254.5C 136.568,255.434 137.901,255.768 139.5,255.5C 139.5,255.833 139.5,256.167 139.5,256.5C 139.167,256.5 138.833,256.5 138.5,256.5C 136.143,256.337 133.81,256.503 131.5,257C 132.471,258.481 133.804,259.315 135.5,259.5C 141.891,264.709 148.725,269.376 156,273.5C 163.558,271.237 171.058,268.904 178.5,266.5C 178.5,266.833 178.5,267.167 178.5,267.5C 176.539,269.113 174.206,270.113 171.5,270.5C 168.162,271.501 164.829,272.501 161.5,273.5C 160.357,273.908 159.357,274.575 158.5,275.5C 162.208,278.223 165.875,280.89 169.5,283.5C 168.833,284.167 168.167,284.833 167.5,285.5C 166.438,282.622 164.438,280.622 161.5,279.5C 159.208,278.376 157.042,277.043 155,275.5C 153.234,276.233 151.401,276.567 149.5,276.5C 150.167,275.833 150.833,275.167 151.5,274.5C 151.938,274.565 152.272,274.399 152.5,274C 149.621,271.615 146.621,269.448 143.5,267.5C 141.772,265.774 139.772,264.441 137.5,263.5C 134.833,261.5 132.167,259.5 129.5,257.5C 130.043,257.44 130.376,257.107 130.5,256.5C 129.398,255.824 128.398,255.158 127.5,254.5 Z"/></g>
<g><path style="opacity:1" fill="#251f39" d="M 171.5,270.5 C 171.953,271.458 172.619,272.292 173.5,273C 177.585,273.233 181.585,273.733 185.5,274.5C 182.869,276.153 180.203,277.819 177.5,279.5C 174.574,279.328 171.574,278.328 168.5,276.5C 164.779,278.335 162.446,277.335 161.5,273.5C 164.829,272.501 168.162,271.501 171.5,270.5 Z"/></g>
<g><path style="opacity:1" fill="#241f28" d="M 121.5,270.5 C 127.843,271.168 134.176,272.001 140.5,273C 142.076,273.44 143.41,274.273 144.5,275.5C 146.747,274.626 149.08,274.292 151.5,274.5C 150.833,275.167 150.167,275.833 149.5,276.5C 144.679,276.873 140.012,277.873 135.5,279.5C 130.145,277.494 125.479,274.494 121.5,270.5 Z"/></g>
<g><path style="opacity:1" fill="#281e49" d="M 196.5,273.5 C 199.327,274.108 201.993,275.108 204.5,276.5C 204.539,277.756 204.039,278.756 203,279.5C 200.168,278.038 198.001,276.038 196.5,273.5 Z"/></g>
<g><path style="opacity:1" fill="#b7b8c1" d="M 149.5,276.5 C 149.5,277.167 149.167,277.5 148.5,277.5C 147.609,278.11 146.609,278.443 145.5,278.5C 142.743,279.512 140.076,280.512 137.5,281.5C 136.167,281.5 135.5,280.833 135.5,279.5C 140.012,277.873 144.679,276.873 149.5,276.5 Z"/></g>
<g><path style="opacity:0.904" fill="#c5c5ce" d="M 212.5,266.5 C 218.14,270.147 223.473,274.147 228.5,278.5C 228.5,279.167 228.5,279.833 228.5,280.5C 229.756,282.726 229.756,285.059 228.5,287.5C 226.771,286.883 225.271,285.883 224,284.5C 223.536,285.094 223.369,285.761 223.5,286.5C 221.716,285.28 220.05,285.28 218.5,286.5C 217.833,286.5 217.5,286.167 217.5,285.5C 217.842,284.662 218.508,284.328 219.5,284.5C 220.376,284.631 221.043,284.298 221.5,283.5C 217.772,280.441 213.772,277.774 209.5,275.5C 208.893,275.624 208.56,275.957 208.5,276.5C 207.29,276.068 206.29,275.401 205.5,274.5C 206.239,274.631 206.906,274.464 207.5,274C 205.833,272.833 204.167,271.667 202.5,270.5C 201.893,270.624 201.56,270.957 201.5,271.5C 200.957,271.44 200.624,271.107 200.5,270.5C 202.121,269.305 203.787,268.305 205.5,267.5C 205.389,268.117 205.056,268.617 204.5,269C 208.493,273.811 210.493,273.311 210.5,267.5C 211.167,267.167 211.833,266.833 212.5,266.5 Z"/></g>
<g><path style="opacity:1" fill="#251f42" d="M 212.5,270.5 C 216.032,271.853 219.199,273.853 222,276.5C 222.781,277.944 222.614,279.277 221.5,280.5C 218.249,278.625 215.082,276.625 212,274.5C 211.421,273.072 211.588,271.738 212.5,270.5 Z"/></g>
<g><path style="opacity:1" fill="#95c73f" d="M 274.5,291.5 C 270.109,293.649 266.775,292.482 264.5,288C 265.226,284.06 265.559,279.894 265.5,275.5C 266.167,278.167 266.833,280.833 267.5,283.5C 267.833,283.167 268.167,282.833 268.5,282.5C 268.351,278.283 267.684,273.95 266.5,269.5C 267.061,265.043 268.728,261.043 271.5,257.5C 276.299,262.134 280.133,267.467 283,273.5C 284.154,281.521 281.321,287.521 274.5,291.5 Z"/></g>
<g><path style="opacity:1" fill="#25266c" d="M 161.5,279.5 C 159.372,280.629 157.039,280.796 154.5,280C 151.949,279.998 149.949,279.164 148.5,277.5C 149.167,277.5 149.5,277.167 149.5,276.5C 151.401,276.567 153.234,276.233 155,275.5C 157.042,277.043 159.208,278.376 161.5,279.5 Z"/></g>
<g><path style="opacity:1" fill="#2a498e" d="M 195.5,275.5 C 196.833,276.833 198.167,278.167 199.5,279.5C 196.228,279.993 192.895,279.66 189.5,278.5C 190.911,276.461 192.911,275.461 195.5,275.5 Z"/></g>
<g><path style="opacity:1" fill="#2b2549" d="M 208.5,276.5 C 208.56,275.957 208.893,275.624 209.5,275.5C 213.772,277.774 217.772,280.441 221.5,283.5C 221.043,284.298 220.376,284.631 219.5,284.5C 216.048,281.601 212.382,278.934 208.5,276.5 Z"/></g>
<g><path style="opacity:0.68" fill="#e9e9ec" d="M 228.5,278.5 C 229.809,280.571 230.475,283.071 230.5,286C 231.299,296.819 231.633,307.653 231.5,318.5C 231.167,318.5 230.833,318.5 230.5,318.5C 230.806,315.615 230.473,312.948 229.5,310.5C 229.5,308.167 229.5,305.833 229.5,303.5C 229.634,301.708 229.301,300.042 228.5,298.5C 228.5,298.167 228.5,297.833 228.5,297.5C 228.746,293.672 226.746,291.005 222.5,289.5C 221.833,288.833 221.167,288.167 220.5,287.5C 219.833,287.167 219.167,286.833 218.5,286.5C 220.05,285.28 221.716,285.28 223.5,286.5C 225.021,288.529 227.021,289.362 229.5,289C 228.944,288.617 228.611,288.117 228.5,287.5C 229.756,285.059 229.756,282.726 228.5,280.5C 228.5,279.833 228.5,279.167 228.5,278.5 Z"/></g>
<g><path style="opacity:1" fill="#241f26" d="M 161.5,273.5 C 162.446,277.335 164.779,278.335 168.5,276.5C 171.574,278.328 174.574,279.328 177.5,279.5C 175.062,281.267 172.395,282.601 169.5,283.5C 165.875,280.89 162.208,278.223 158.5,275.5C 159.357,274.575 160.357,273.908 161.5,273.5 Z"/></g>
<g><path style="opacity:1" fill="#25204b" d="M 148.5,277.5 C 149.949,279.164 151.949,279.998 154.5,280C 157.039,280.796 159.372,280.629 161.5,279.5C 164.438,280.622 166.438,282.622 167.5,285.5C 167.167,285.5 166.833,285.5 166.5,285.5C 159.901,282.437 152.901,281.104 145.5,281.5C 145.5,280.5 145.5,279.5 145.5,278.5C 146.609,278.443 147.609,278.11 148.5,277.5 Z"/></g>
<g><path style="opacity:1" fill="#98c449" d="M 266.5,269.5 C 267.684,273.95 268.351,278.283 268.5,282.5C 268.167,282.833 267.833,283.167 267.5,283.5C 266.833,280.833 266.167,278.167 265.5,275.5C 265.559,279.894 265.226,284.06 264.5,288C 266.775,292.482 270.109,293.649 274.5,291.5C 273.542,292.962 272.376,294.295 271,295.5C 263.299,292.76 260.299,287.427 262,279.5C 262.844,275.771 264.344,272.437 266.5,269.5 Z"/></g>
<g><path style="opacity:1" fill="#242258" d="M 206.5,278.5 C 209.473,280.147 212.14,282.147 214.5,284.5C 212.784,284.371 211.117,284.038 209.5,283.5C 207.833,282.833 206.167,282.167 204.5,281.5C 204.782,280.222 205.449,279.222 206.5,278.5 Z"/></g>
<g><path style="opacity:1" fill="#27223a" d="M 228.5,280.5 C 228.842,286.332 227.176,286.666 223.5,281.5C 224.541,277.862 226.208,277.529 228.5,280.5 Z"/></g>
<g><path style="opacity:1" fill="#232054" d="M 189.5,278.5 C 192.895,279.66 196.228,279.993 199.5,279.5C 200.473,279.987 201.473,280.487 202.5,281C 200.627,282.704 198.96,284.537 197.5,286.5C 193.419,284.562 189.085,283.396 184.5,283C 185.252,282.329 185.586,281.496 185.5,280.5C 186.833,279.833 188.167,279.167 189.5,278.5 Z"/></g>
<g><path style="opacity:1" fill="#261f3a" d="M 185.5,280.5 C 185.586,281.496 185.252,282.329 184.5,283C 189.085,283.396 193.419,284.562 197.5,286.5C 197.167,287.5 196.5,288.167 195.5,288.5C 190.217,288.339 185.051,287.672 180,286.5C 178.699,286.639 177.866,287.305 177.5,288.5C 176.662,288.158 176.328,287.492 176.5,286.5C 179.5,284.5 182.5,282.5 185.5,280.5 Z"/></g>
<g><path style="opacity:1" fill="#2c273d" d="M 228.5,287.5 C 228.611,288.117 228.944,288.617 229.5,289C 227.021,289.362 225.021,288.529 223.5,286.5C 223.369,285.761 223.536,285.094 224,284.5C 225.271,285.883 226.771,286.883 228.5,287.5 Z"/></g>
<g><path style="opacity:1" fill="#4e4e4e" d="M 108.5,264.5 C 110.167,265.167 111.833,265.833 113.5,266.5C 116.167,267.833 118.833,269.167 121.5,270.5C 125.479,274.494 130.145,277.494 135.5,279.5C 135.5,280.833 136.167,281.5 137.5,281.5C 140.319,284.075 143.319,286.408 146.5,288.5C 147.527,290.194 148.861,291.527 150.5,292.5C 150.5,292.833 150.5,293.167 150.5,293.5C 138.609,285.634 126.776,277.634 115,269.5C 114.251,270.635 114.417,271.635 115.5,272.5C 125.092,278.117 134.092,284.451 142.5,291.5C 134.025,286.427 125.692,281.093 117.5,275.5C 116.614,274.224 115.614,274.224 114.5,275.5C 117.132,281.756 119.465,288.089 121.5,294.5C 117.802,287.1 114.468,279.433 111.5,271.5C 110.148,270.476 108.815,269.476 107.5,268.5C 107.5,267.833 107.833,267.5 108.5,267.5C 109.625,266.652 109.625,265.652 108.5,264.5 Z"/></g>
<g><path style="opacity:1" fill="#26222c" d="M 145.5,278.5 C 145.5,279.5 145.5,280.5 145.5,281.5C 152.901,281.104 159.901,282.437 166.5,285.5C 164.727,286.892 162.727,288.059 160.5,289C 155.826,289.333 151.16,289.167 146.5,288.5C 143.319,286.408 140.319,284.075 137.5,281.5C 140.076,280.512 142.743,279.512 145.5,278.5 Z"/></g>
<g><path style="opacity:1" fill="#261b2c" d="M 209.5,283.5 C 211.117,284.038 212.784,284.371 214.5,284.5C 215.609,284.557 216.609,284.89 217.5,285.5C 217.5,286.167 217.833,286.5 218.5,286.5C 219.167,286.833 219.833,287.167 220.5,287.5C 220.719,288.675 220.386,289.675 219.5,290.5C 215.75,288.637 212.417,286.303 209.5,283.5 Z"/></g>
<g><path style="opacity:1" fill="#dbdbdb" d="M 150.5,293.5 C 149.791,294.404 148.791,294.737 147.5,294.5C 146.599,292.273 144.933,291.273 142.5,291.5C 134.092,284.451 125.092,278.117 115.5,272.5C 114.417,271.635 114.251,270.635 115,269.5C 126.776,277.634 138.609,285.634 150.5,293.5 Z"/></g>
<g><path style="opacity:1" fill="#27337a" d="M 204.5,281.5 C 208.493,285.688 213.16,289.188 218.5,292C 219.791,293.292 219.791,294.458 218.5,295.5C 217.167,295.5 215.833,295.5 214.5,295.5C 214.5,294.167 214.5,292.833 214.5,291.5C 209.441,290.319 204.441,288.986 199.5,287.5C 200.419,284.911 202.086,282.911 204.5,281.5 Z"/></g>
<g><path style="opacity:1" fill="#252b71" d="M 175.5,288.5 C 178.833,291.167 182.167,293.833 185.5,296.5C 185.465,297.404 184.965,298.07 184,298.5C 178.388,295.777 172.555,294.611 166.5,295C 167.252,294.329 167.586,293.496 167.5,292.5C 169.926,290.62 172.592,289.287 175.5,288.5 Z"/></g>
<g><path style="opacity:1" fill="#312448" d="M 222.5,289.5 C 226.746,291.005 228.746,293.672 228.5,297.5C 226.645,295.967 224.812,294.3 223,292.5C 222.517,291.552 222.351,290.552 222.5,289.5 Z"/></g>
<g><path style="opacity:1" fill="#251f51" d="M 199.5,287.5 C 204.441,288.986 209.441,290.319 214.5,291.5C 214.5,292.833 214.5,294.167 214.5,295.5C 215.833,295.5 217.167,295.5 218.5,295.5C 218.5,296.5 218.5,297.5 218.5,298.5C 211.625,296.919 204.625,295.585 197.5,294.5C 196.308,295.784 194.308,296.784 191.5,297.5C 191.062,297.565 190.728,297.399 190.5,297C 193.169,293.472 196.169,290.305 199.5,287.5 Z"/></g>
<g><path style="opacity:1" fill="#bac0c9" d="M 204.5,281.5 C 206.167,282.167 207.833,282.833 209.5,283.5C 212.417,286.303 215.75,288.637 219.5,290.5C 220.386,289.675 220.719,288.675 220.5,287.5C 221.167,288.167 221.833,288.833 222.5,289.5C 222.351,290.552 222.517,291.552 223,292.5C 224.812,294.3 226.645,295.967 228.5,297.5C 228.5,297.833 228.5,298.167 228.5,298.5C 226.236,297.419 224.069,296.085 222,294.5C 221.392,296.154 220.892,297.821 220.5,299.5C 219.841,302.455 219.508,305.455 219.5,308.5C 218.527,310.948 218.194,313.615 218.5,316.5C 217.833,315.5 217.167,314.5 216.5,313.5C 216.993,311.194 217.326,308.861 217.5,306.5C 217.575,303.794 217.908,301.127 218.5,298.5C 218.5,297.5 218.5,296.5 218.5,295.5C 219.791,294.458 219.791,293.292 218.5,292C 213.16,289.188 208.493,285.688 204.5,281.5 Z"/></g>
<g><path style="opacity:1" fill="#96c740" d="M 296.5,277.5 C 302.122,282.021 304.288,288.021 303,295.5C 299.359,302.308 294.192,307.641 287.5,311.5C 282.646,308.742 281.313,304.742 283.5,299.5C 288.353,292.459 292.686,285.126 296.5,277.5 Z"/></g>
<g><path style="opacity:1" fill="#fbfbfb" d="M 150.5,297.5 C 150.5,305.833 150.5,314.167 150.5,322.5C 149.833,317.167 149.167,311.833 148.5,306.5C 148.5,306.167 148.5,305.833 148.5,305.5C 149.167,302.833 149.833,300.167 150.5,297.5 Z"/></g>
<g><path style="opacity:1" fill="#151515" d="M 150.5,292.5 C 152.678,293.657 154.678,294.99 156.5,296.5C 156.565,296.938 156.399,297.272 156,297.5C 154.663,296.235 153.163,295.735 151.5,296C 154.13,298.355 153.797,298.855 150.5,297.5C 150.44,296.957 150.107,296.624 149.5,296.5C 148.516,299.428 148.183,302.428 148.5,305.5C 148.5,305.833 148.5,306.167 148.5,306.5C 148.666,312.176 148.499,317.843 148,323.5C 147.5,313.839 147.334,304.172 147.5,294.5C 148.791,294.737 149.791,294.404 150.5,293.5C 150.5,293.167 150.5,292.833 150.5,292.5 Z"/></g>
<g><path style="opacity:1" fill="#231e47" d="M 167.5,292.5 C 167.586,293.496 167.252,294.329 166.5,295C 172.555,294.611 178.388,295.777 184,298.5C 184.965,298.07 185.465,297.404 185.5,296.5C 187.481,297.105 187.815,298.105 186.5,299.5C 184.508,299.328 182.842,299.995 181.5,301.5C 177.279,300.019 173.113,298.352 169,296.5C 168.098,296.743 167.265,297.077 166.5,297.5C 164.977,295.414 165.31,293.748 167.5,292.5 Z"/></g>
<g><path style="opacity:1" fill="#26357f" d="M 228.5,298.5 C 229.301,300.042 229.634,301.708 229.5,303.5C 228.883,303.611 228.383,303.944 228,304.5C 226.246,302.75 224.079,302.083 221.5,302.5C 221.737,301.209 221.404,300.209 220.5,299.5C 220.892,297.821 221.392,296.154 222,294.5C 224.069,296.085 226.236,297.419 228.5,298.5 Z"/></g>
<g><path style="opacity:1" fill="#999999" d="M 150.5,297.5 C 149.833,300.167 149.167,302.833 148.5,305.5C 148.183,302.428 148.516,299.428 149.5,296.5C 150.107,296.624 150.44,296.957 150.5,297.5 Z"/></g>
<g><path style="opacity:1" fill="#251e2c" d="M 186.5,299.5 C 183.425,303.242 180.091,306.575 176.5,309.5C 173.525,306.677 170.192,304.344 166.5,302.5C 166.5,300.833 166.5,299.167 166.5,297.5C 167.265,297.077 168.098,296.743 169,296.5C 173.113,298.352 177.279,300.019 181.5,301.5C 182.842,299.995 184.508,299.328 186.5,299.5 Z"/></g>
<g><path style="opacity:1" fill="#a8a8a8" d="M 117.5,275.5 C 117.062,275.435 116.728,275.601 116.5,276C 124.309,295.117 131.976,314.283 139.5,333.5C 139.242,335.19 139.242,337.19 139.5,339.5C 132.734,324.883 126.734,309.883 121.5,294.5C 119.465,288.089 117.132,281.756 114.5,275.5C 115.614,274.224 116.614,274.224 117.5,275.5 Z"/></g>
<g><path style="opacity:1" fill="#94c73f" d="M 331.5,273.5 C 334.874,276.219 335.874,279.552 334.5,283.5C 332.508,283.672 330.842,283.005 329.5,281.5C 328.985,284.157 329.485,286.823 331,289.5C 331.689,288.643 332.522,287.977 333.5,287.5C 334.524,288.853 335.857,289.52 337.5,289.5C 337.5,290.833 337.5,292.167 337.5,293.5C 334.664,292.224 331.664,291.558 328.5,291.5C 328.16,294.144 328.827,296.477 330.5,298.5C 329.975,299.192 329.308,299.692 328.5,300C 328.616,301.268 328.949,302.602 329.5,304C 327.963,305.11 327.297,306.61 327.5,308.5C 317.877,319.805 306.544,328.805 293.5,335.5C 290.564,334.594 287.564,333.928 284.5,333.5C 284.238,332.022 284.571,330.689 285.5,329.5C 287.59,327.753 289.257,325.753 290.5,323.5C 297.388,313.604 305.054,304.271 313.5,295.5C 314.937,298.044 316.437,298.044 318,295.5C 322.776,288.27 327.276,280.937 331.5,273.5 Z"/></g>
<g><path style="opacity:1" fill="#afb5c1" d="M 196.5,273.5 C 198.001,276.038 200.168,278.038 203,279.5C 204.039,278.756 204.539,277.756 204.5,276.5C 205.167,277.167 205.833,277.833 206.5,278.5C 205.449,279.222 204.782,280.222 204.5,281.5C 202.086,282.911 200.419,284.911 199.5,287.5C 196.169,290.305 193.169,293.472 190.5,297C 190.728,297.399 191.062,297.565 191.5,297.5C 195.148,300.66 199.148,303.327 203.5,305.5C 205.5,307.167 207.5,308.833 209.5,310.5C 208.833,310.5 208.5,310.833 208.5,311.5C 207.395,310.4 206.062,309.733 204.5,309.5C 200.11,305.625 195.277,302.291 190,299.5C 187.27,300.728 185.436,302.728 184.5,305.5C 182.086,306.911 180.419,308.911 179.5,311.5C 178.833,311.5 178.167,311.5 177.5,311.5C 177.167,310.833 176.833,310.167 176.5,309.5C 180.091,306.575 183.425,303.242 186.5,299.5C 187.815,298.105 187.481,297.105 185.5,296.5C 182.167,293.833 178.833,291.167 175.5,288.5C 175.328,287.508 175.662,286.842 176.5,286.5C 176.328,287.492 176.662,288.158 177.5,288.5C 181.392,291.034 185.225,293.7 189,296.5C 191.001,293.669 193.167,291.003 195.5,288.5C 196.5,288.167 197.167,287.5 197.5,286.5C 198.96,284.537 200.627,282.704 202.5,281C 201.473,280.487 200.473,279.987 199.5,279.5C 198.167,278.167 196.833,276.833 195.5,275.5C 195.328,274.508 195.662,273.842 196.5,273.5 Z"/></g>
<g><path style="opacity:1" fill="#241f27" d="M 195.5,288.5 C 193.167,291.003 191.001,293.669 189,296.5C 185.225,293.7 181.392,291.034 177.5,288.5C 177.866,287.305 178.699,286.639 180,286.5C 185.051,287.672 190.217,288.339 195.5,288.5 Z"/></g>
<g><path style="opacity:1" fill="#241e33" d="M 218.5,298.5 C 217.908,301.127 217.575,303.794 217.5,306.5C 213.236,307.754 209.236,307.087 205.5,304.5C 204.584,304.543 203.917,304.876 203.5,305.5C 199.148,303.327 195.148,300.66 191.5,297.5C 194.308,296.784 196.308,295.784 197.5,294.5C 204.625,295.585 211.625,296.919 218.5,298.5 Z"/></g>
<g><path style="opacity:1" fill="#24337b" d="M 204.5,309.5 C 202.211,309.588 199.877,309.588 197.5,309.5C 196.034,308.865 194.7,308.031 193.5,307C 190.135,306.439 187.135,305.939 184.5,305.5C 185.436,302.728 187.27,300.728 190,299.5C 195.277,302.291 200.11,305.625 204.5,309.5 Z"/></g>
<g><path style="opacity:1" fill="#4b4b4b" d="M 159.5,298.5 C 161.67,300.086 164.004,301.42 166.5,302.5C 170.192,304.344 173.525,306.677 176.5,309.5C 176.833,310.167 177.167,310.833 177.5,311.5C 171.736,308.252 166.069,304.752 160.5,301C 159.001,300.162 158.668,299.329 159.5,298.5 Z"/></g>
<g><path style="opacity:1" fill="#252124" d="M 217.5,306.5 C 217.326,308.861 216.993,311.194 216.5,313.5C 216.44,314.043 216.107,314.376 215.5,314.5C 213.754,312.748 211.754,311.415 209.5,310.5C 207.5,308.833 205.5,307.167 203.5,305.5C 203.917,304.876 204.584,304.543 205.5,304.5C 209.236,307.087 213.236,307.754 217.5,306.5 Z"/></g>
<g><path style="opacity:1" fill="#26204a" d="M 220.5,299.5 C 221.404,300.209 221.737,301.209 221.5,302.5C 224.079,302.083 226.246,302.75 228,304.5C 228.383,303.944 228.883,303.611 229.5,303.5C 229.5,305.833 229.5,308.167 229.5,310.5C 229.44,311.043 229.107,311.376 228.5,311.5C 227.449,310.115 226.116,309.115 224.5,308.5C 222.684,309.735 221.017,309.735 219.5,308.5C 219.508,305.455 219.841,302.455 220.5,299.5 Z"/></g>
<g><path style="opacity:1" fill="#95c742" d="M 246.5,289.5 C 249.069,290.396 251.069,292.062 252.5,294.5C 253.833,297.5 255.167,300.5 256.5,303.5C 255.818,306.366 254.484,308.866 252.5,311C 248.972,314.264 244.972,316.764 240.5,318.5C 234.977,316.701 233.143,313.035 235,307.5C 238.662,301.348 242.496,295.348 246.5,289.5 Z"/></g>
<g><path style="opacity:1" fill="#4d4d4e" d="M 177.5,311.5 C 178.167,311.5 178.833,311.5 179.5,311.5C 180.167,311.5 180.833,311.5 181.5,311.5C 184.257,314.579 187.59,316.912 191.5,318.5C 196.833,322.5 202.167,326.5 207.5,330.5C 207.167,331.167 206.833,331.833 206.5,332.5C 205.778,332.918 205.278,333.584 205,334.5C 202.156,332.841 199.656,330.841 197.5,328.5C 195.5,327.833 193.5,327.167 191.5,326.5C 191.158,325.662 190.492,325.328 189.5,325.5C 184.237,321.186 178.903,316.852 173.5,312.5C 173.435,312.062 173.601,311.728 174,311.5C 179.599,316.534 185.765,320.367 192.5,323C 187.315,319.303 182.315,315.47 177.5,311.5 Z"/></g>
<g><path style="opacity:1" fill="#251f4b" d="M 184.5,305.5 C 187.135,305.939 190.135,306.439 193.5,307C 194.7,308.031 196.034,308.865 197.5,309.5C 199.877,309.588 202.211,309.588 204.5,309.5C 206.062,309.733 207.395,310.4 208.5,311.5C 210.01,312.836 211.677,314.003 213.5,315C 214.823,315.816 215.489,316.983 215.5,318.5C 213.958,319.301 212.292,319.634 210.5,319.5C 209.596,318.791 209.263,317.791 209.5,316.5C 202.99,316.351 196.657,315.351 190.5,313.5C 189.707,313.931 188.873,314.265 188,314.5C 186.125,312.822 183.958,311.822 181.5,311.5C 180.833,311.5 180.167,311.5 179.5,311.5C 180.419,308.911 182.086,306.911 184.5,305.5 Z"/></g>
<g><path style="opacity:1" fill="#d5d6db" d="M 208.5,311.5 C 208.5,310.833 208.833,310.5 209.5,310.5C 211.754,311.415 213.754,312.748 215.5,314.5C 216.107,314.376 216.44,314.043 216.5,313.5C 217.167,314.5 217.833,315.5 218.5,316.5C 221.969,319.072 225.636,321.406 229.5,323.5C 230.452,321.955 230.785,320.288 230.5,318.5C 230.833,318.5 231.167,318.5 231.5,318.5C 231.5,321.167 231.5,323.833 231.5,326.5C 231.167,326.5 230.833,326.5 230.5,326.5C 226.529,323.844 222.529,321.177 218.5,318.5C 216.771,320.851 216.104,323.518 216.5,326.5C 215.566,327.568 215.232,328.901 215.5,330.5C 214.527,332.068 214.36,333.735 215,335.5C 217.988,337.399 220.821,339.399 223.5,341.5C 223.167,341.5 222.833,341.5 222.5,341.5C 217.167,338.5 211.833,335.5 206.5,332.5C 206.833,331.833 207.167,331.167 207.5,330.5C 209.305,331.237 210.971,332.237 212.5,333.5C 213.886,328.572 214.886,323.572 215.5,318.5C 215.489,316.983 214.823,315.816 213.5,315C 211.677,314.003 210.01,312.836 208.5,311.5 Z"/></g>
<g><path style="opacity:1" fill="#251f2d" d="M 219.5,308.5 C 221.017,309.735 222.684,309.735 224.5,308.5C 226.116,309.115 227.449,310.115 228.5,311.5C 229.107,311.376 229.44,311.043 229.5,310.5C 230.473,312.948 230.806,315.615 230.5,318.5C 230.785,320.288 230.452,321.955 229.5,323.5C 225.636,321.406 221.969,319.072 218.5,316.5C 218.194,313.615 218.527,310.948 219.5,308.5 Z"/></g>
<g><path style="opacity:1" fill="#c9c9c9" d="M 156.5,296.5 C 157.71,296.932 158.71,297.599 159.5,298.5C 158.668,299.329 159.001,300.162 160.5,301C 166.069,304.752 171.736,308.252 177.5,311.5C 182.315,315.47 187.315,319.303 192.5,323C 185.765,320.367 179.599,316.534 174,311.5C 173.601,311.728 173.435,312.062 173.5,312.5C 172.508,312.672 171.842,312.338 171.5,311.5C 172.738,311.19 172.738,310.69 171.5,310C 169.922,308.906 168.255,308.072 166.5,307.5C 165.738,305.738 164.404,304.738 162.5,304.5C 161.508,304.672 160.842,304.338 160.5,303.5C 159.024,301.5 157.191,299.833 155,298.5C 154.536,299.094 154.369,299.761 154.5,300.5C 153.883,300.389 153.383,300.056 153,299.5C 152.5,307.159 152.334,314.826 152.5,322.5C 151.833,322.5 151.167,322.5 150.5,322.5C 150.5,314.167 150.5,305.833 150.5,297.5C 153.797,298.855 154.13,298.355 151.5,296C 153.163,295.735 154.663,296.235 156,297.5C 156.399,297.272 156.565,296.938 156.5,296.5 Z"/></g>
<g><path style="opacity:0.433" fill="#252525" d="M 166.5,307.5 C 168.255,308.072 169.922,308.906 171.5,310C 172.738,310.69 172.738,311.19 171.5,311.5C 169.246,310.876 167.579,309.543 166.5,307.5 Z"/></g>
<g><path style="opacity:1" fill="#434343" d="M 162.5,304.5 C 164.404,304.738 165.738,305.738 166.5,307.5C 164.596,307.262 163.262,306.262 162.5,304.5 Z"/></g>
<g><path style="opacity:0.535" fill="#252525" d="M 160.5,303.5 C 159.391,303.443 158.391,303.11 157.5,302.5C 156.71,301.599 155.71,300.932 154.5,300.5C 154.369,299.761 154.536,299.094 155,298.5C 157.191,299.833 159.024,301.5 160.5,303.5 Z"/></g>
<g><path style="opacity:1" fill="#f2f2f2" d="M 154.5,300.5 C 155.13,308.243 154.463,315.576 152.5,322.5C 152.334,314.826 152.5,307.159 153,299.5C 153.383,300.056 153.883,300.389 154.5,300.5 Z"/></g>
<g><path style="opacity:1" fill="#241d38" d="M 181.5,311.5 C 183.958,311.822 186.125,312.822 188,314.5C 188.873,314.265 189.707,313.931 190.5,313.5C 196.657,315.351 202.99,316.351 209.5,316.5C 209.263,317.791 209.596,318.791 210.5,319.5C 210.38,320.586 209.713,321.253 208.5,321.5C 202.908,320.035 197.242,319.035 191.5,318.5C 187.59,316.912 184.257,314.579 181.5,311.5 Z"/></g>
<g><path style="opacity:1" fill="#95c643" d="M 268.5,305.5 C 270.335,306.122 271.502,307.456 272,309.5C 273.772,315.467 272.272,320.301 267.5,324C 262.484,327.188 257.151,329.188 251.5,330C 249.813,328.087 249.313,325.92 250,323.5C 256.34,317.66 262.506,311.66 268.5,305.5 Z"/></g>
<g><path style="opacity:1" fill="#26202b" d="M 191.5,318.5 C 197.242,319.035 202.908,320.035 208.5,321.5C 209.713,321.253 210.38,320.586 210.5,319.5C 212.292,319.634 213.958,319.301 215.5,318.5C 214.886,323.572 213.886,328.572 212.5,333.5C 210.971,332.237 209.305,331.237 207.5,330.5C 202.167,326.5 196.833,322.5 191.5,318.5 Z"/></g>
<g><path style="opacity:1" fill="#8b8b8b" d="M 142.5,291.5 C 144.933,291.273 146.599,292.273 147.5,294.5C 147.334,304.172 147.5,313.839 148,323.5C 148.499,317.843 148.666,312.176 148.5,306.5C 149.167,311.833 149.833,317.167 150.5,322.5C 151.167,322.5 151.833,322.5 152.5,322.5C 154.463,315.576 155.13,308.243 154.5,300.5C 155.71,300.932 156.71,301.599 157.5,302.5C 156.509,309.313 156.175,316.313 156.5,323.5C 157.833,323.5 159.167,323.5 160.5,323.5C 160.5,323.833 160.5,324.167 160.5,324.5C 157.833,324.5 155.167,324.5 152.5,324.5C 151.833,324.5 151.167,324.5 150.5,324.5C 147.833,324.5 145.167,324.5 142.5,324.5C 142.5,327.833 142.5,331.167 142.5,334.5C 144.833,334.5 147.167,334.5 149.5,334.5C 149.833,335.167 150.167,335.833 150.5,336.5C 147.302,335.964 144.635,336.631 142.5,338.5C 140.462,337.144 140.128,335.477 141.5,333.5C 141.5,330.167 141.5,326.833 141.5,323.5C 143.167,323.5 144.833,323.5 146.5,323.5C 146.832,313.81 146.498,304.144 145.5,294.5C 144.145,293.812 143.145,292.812 142.5,291.5 Z"/></g>
<g><path style="opacity:1" fill="#fbfbfb" d="M 150.5,324.5 C 150.813,328.042 150.479,331.375 149.5,334.5C 147.167,334.5 144.833,334.5 142.5,334.5C 142.5,331.167 142.5,327.833 142.5,324.5C 145.167,324.5 147.833,324.5 150.5,324.5 Z"/></g>
<g><path style="opacity:1" fill="#f9f9f9" d="M 152.5,324.5 C 155.167,324.5 157.833,324.5 160.5,324.5C 160.5,327.833 160.5,331.167 160.5,334.5C 157.833,334.5 155.167,334.5 152.5,334.5C 152.5,331.167 152.5,327.833 152.5,324.5 Z"/></g>
<g><path style="opacity:1" fill="#252662" d="M 230.5,326.5 C 230.657,327.873 230.49,329.207 230,330.5C 226.681,329.116 223.515,327.45 220.5,325.5C 219.264,326.246 217.93,326.579 216.5,326.5C 216.104,323.518 216.771,320.851 218.5,318.5C 222.529,321.177 226.529,323.844 230.5,326.5 Z"/></g>
<g><path style="opacity:1" fill="#ababab" d="M 150.5,324.5 C 151.167,324.5 151.833,324.5 152.5,324.5C 152.5,327.833 152.5,331.167 152.5,334.5C 155.167,334.5 157.833,334.5 160.5,334.5C 158.167,335.167 155.833,335.833 153.5,336.5C 152.167,337.5 152.167,338.5 153.5,339.5C 155.833,340.167 158.167,340.833 160.5,341.5C 160.167,341.5 159.833,341.5 159.5,341.5C 157.167,341.5 154.833,341.5 152.5,341.5C 152.5,351.5 152.5,361.5 152.5,371.5C 151.833,371.5 151.167,371.5 150.5,371.5C 150.5,361.5 150.5,351.5 150.5,341.5C 148.167,341.5 145.833,341.5 143.5,341.5C 143.5,352.167 143.5,362.833 143.5,373.5C 141.686,363.214 140.852,352.547 141,341.5C 140.283,340.956 139.783,340.289 139.5,339.5C 143.301,340.715 146.967,340.715 150.5,339.5C 150.5,338.5 150.5,337.5 150.5,336.5C 150.167,335.833 149.833,335.167 149.5,334.5C 150.479,331.375 150.813,328.042 150.5,324.5 Z"/></g>
<g><path style="opacity:1" fill="#d9d9d9" d="M 197.5,328.5 C 197.047,327.542 196.381,326.708 195.5,326C 198.299,326.732 200.966,328.066 203.5,330C 204.451,330.718 204.617,331.551 204,332.5C 202.028,330.768 199.861,329.435 197.5,328.5 Z"/></g>
<g><path style="opacity:1" fill="#29233f" d="M 230.5,326.5 C 230.833,326.5 231.167,326.5 231.5,326.5C 231.5,328.833 231.5,331.167 231.5,333.5C 228.664,333.855 225.831,333.188 223,331.5C 222.309,333.891 221.309,333.891 220,331.5C 217.907,334.138 216.407,333.804 215.5,330.5C 215.232,328.901 215.566,327.568 216.5,326.5C 217.93,326.579 219.264,326.246 220.5,325.5C 223.515,327.45 226.681,329.116 230,330.5C 230.49,329.207 230.657,327.873 230.5,326.5 Z"/></g>
<g><path style="opacity:1" fill="#adadad" d="M 189.5,325.5 C 190.492,325.328 191.158,325.662 191.5,326.5C 182.537,331.6 173.204,335.934 163.5,339.5C 163.5,338.833 163.5,338.167 163.5,337.5C 163.953,336.542 164.619,335.708 165.5,335C 173.623,332.103 181.623,328.937 189.5,325.5 Z"/></g>
<g><path style="opacity:1" fill="#96c744" d="M 290.5,323.5 C 289.257,325.753 287.59,327.753 285.5,329.5C 284.571,330.689 284.238,332.022 284.5,333.5C 287.564,333.928 290.564,334.594 293.5,335.5C 282.115,342.12 269.782,346.786 256.5,349.5C 256.423,348.25 255.756,347.417 254.5,347C 257.556,345.224 260.722,345.057 264,346.5C 264.483,345.552 264.649,344.552 264.5,343.5C 263.5,343.5 262.5,343.5 261.5,343.5C 261.563,340.092 263.23,337.759 266.5,336.5C 264.924,335.968 262.924,335.635 260.5,335.5C 259.587,337.835 258.253,340.001 256.5,342C 250.021,344.711 243.354,345.544 236.5,344.5C 238.5,343.167 240.5,341.833 242.5,340.5C 241.311,339.571 239.978,339.238 238.5,339.5C 240.54,338.058 242.873,337.058 245.5,336.5C 246.583,337.365 246.749,338.365 246,339.5C 244.833,340.667 243.667,341.833 242.5,343C 246.554,342.991 250.554,342.324 254.5,341C 255.991,338.911 257.658,336.911 259.5,335C 267.085,330.291 274.585,325.458 282,320.5C 282.495,322.473 282.662,324.473 282.5,326.5C 285.553,326.428 288.219,325.428 290.5,323.5 Z"/></g>
<g><path style="opacity:1" fill="#fbfbfb" d="M 150.5,336.5 C 150.5,337.5 150.5,338.5 150.5,339.5C 147.615,339.806 144.948,339.473 142.5,338.5C 144.635,336.631 147.302,335.964 150.5,336.5 Z"/></g>
<g><path style="opacity:1" fill="#f8f8f8" d="M 153.5,336.5 C 155.833,336.5 158.167,336.5 160.5,336.5C 160.5,337.5 160.5,338.5 160.5,339.5C 158.167,339.5 155.833,339.5 153.5,339.5C 152.167,338.5 152.167,337.5 153.5,336.5 Z"/></g>
<g><path style="opacity:1" fill="#252129" d="M 215.5,330.5 C 216.407,333.804 217.907,334.138 220,331.5C 221.309,333.891 222.309,333.891 223,331.5C 225.831,333.188 228.664,333.855 231.5,333.5C 231.5,334.833 231.5,336.167 231.5,337.5C 230.63,339.274 229.297,340.607 227.5,341.5C 227.167,341.5 226.833,341.5 226.5,341.5C 225.5,341.5 224.5,341.5 223.5,341.5C 220.821,339.399 217.988,337.399 215,335.5C 214.36,333.735 214.527,332.068 215.5,330.5 Z"/></g>
<g><path style="opacity:1" fill="#4d4d4d" d="M 139.5,333.5 C 140.167,333.5 140.833,333.5 141.5,333.5C 140.128,335.477 140.462,337.144 142.5,338.5C 144.948,339.473 147.615,339.806 150.5,339.5C 146.967,340.715 143.301,340.715 139.5,339.5C 139.242,337.19 139.242,335.19 139.5,333.5 Z"/></g>
<g><path style="opacity:1" fill="#b3c09e" d="M 231.5,337.5 C 232.404,338.209 232.737,339.209 232.5,340.5C 231.081,341.451 229.415,341.784 227.5,341.5C 229.297,340.607 230.63,339.274 231.5,337.5 Z"/></g>
<g><path style="opacity:1" fill="#fefefe" d="M 150.5,371.5 C 148.401,372.612 146.067,373.279 143.5,373.5C 143.5,362.833 143.5,352.167 143.5,341.5C 145.833,341.5 148.167,341.5 150.5,341.5C 150.5,351.5 150.5,361.5 150.5,371.5 Z"/></g>
<g><path style="opacity:1" fill="#fdfdfd" d="M 159.5,341.5 C 159.5,351.5 159.5,361.5 159.5,371.5C 156.921,371.865 154.588,371.865 152.5,371.5C 152.5,361.5 152.5,351.5 152.5,341.5C 154.833,341.5 157.167,341.5 159.5,341.5 Z"/></g>
<g><path style="opacity:1" fill="#9bc44c" d="M 222.5,341.5 C 222.833,341.5 223.167,341.5 223.5,341.5C 224.5,341.5 225.5,341.5 226.5,341.5C 227.678,342.999 229.345,343.999 231.5,344.5C 225.651,346.475 219.651,347.809 213.5,348.5C 214.612,349.265 215.279,350.265 215.5,351.5C 201.821,350.326 188.821,346.826 176.5,341C 188.249,343.913 200.249,345.746 212.5,346.5C 215.167,346.333 217.833,346.167 220.5,346C 219.376,345.751 218.376,345.251 217.5,344.5C 219.36,343.675 221.026,342.675 222.5,341.5 Z"/></g>
<g><path style="opacity:1" fill="#95c840" d="M 256.5,349.5 C 242.951,352.383 229.284,353.05 215.5,351.5C 215.279,350.265 214.612,349.265 213.5,348.5C 219.651,347.809 225.651,346.475 231.5,344.5C 229.345,343.999 227.678,342.999 226.5,341.5C 226.833,341.5 227.167,341.5 227.5,341.5C 229.415,341.784 231.081,341.451 232.5,340.5C 234.379,339.659 236.379,339.325 238.5,339.5C 239.978,339.238 241.311,339.571 242.5,340.5C 240.5,341.833 238.5,343.167 236.5,344.5C 243.354,345.544 250.021,344.711 256.5,342C 258.253,340.001 259.587,337.835 260.5,335.5C 262.924,335.635 264.924,335.968 266.5,336.5C 263.23,337.759 261.563,340.092 261.5,343.5C 262.5,343.5 263.5,343.5 264.5,343.5C 264.649,344.552 264.483,345.552 264,346.5C 260.722,345.057 257.556,345.224 254.5,347C 255.756,347.417 256.423,348.25 256.5,349.5 Z"/></g>
<g><path style="opacity:1" fill="#626262" d="M 160.5,323.5 C 161.325,327.647 161.825,331.981 162,336.5C 162.383,337.056 162.883,337.389 163.5,337.5C 163.5,338.167 163.5,338.833 163.5,339.5C 162.761,339.369 162.094,339.536 161.5,340C 161.549,349.957 161.549,360.124 161.5,370.5C 160.506,361.014 160.173,351.348 160.5,341.5C 158.167,340.833 155.833,340.167 153.5,339.5C 155.833,339.5 158.167,339.5 160.5,339.5C 160.5,338.5 160.5,337.5 160.5,336.5C 158.167,336.5 155.833,336.5 153.5,336.5C 155.833,335.833 158.167,335.167 160.5,334.5C 160.5,331.167 160.5,327.833 160.5,324.5C 160.5,324.167 160.5,323.833 160.5,323.5 Z"/></g>
<g><path style="opacity:0.767" fill="#d8d8da" d="M 159.5,341.5 C 159.833,341.5 160.167,341.5 160.5,341.5C 160.173,351.348 160.506,361.014 161.5,370.5C 160.547,372.61 158.881,373.777 156.5,374C 151.98,374.814 147.646,374.647 143.5,373.5C 146.067,373.279 148.401,372.612 150.5,371.5C 151.167,371.5 151.833,371.5 152.5,371.5C 154.588,371.865 156.921,371.865 159.5,371.5C 159.5,361.5 159.5,351.5 159.5,341.5 Z"/></g>
<g><path style="opacity:1" fill="#98c159" d="M 178.5,394.5 C 185.917,393.787 191.083,396.787 194,403.5C 197.07,418.918 190.903,425.751 175.5,424C 167.432,418.942 164.932,411.776 168,402.5C 170.271,398.044 173.771,395.378 178.5,394.5 Z M 179.5,398.5 C 186.569,399.07 189.903,402.903 189.5,410C 188.457,419.436 183.624,422.269 175,418.5C 172.149,413.32 171.815,407.987 174,402.5C 175.5,400.531 177.333,399.198 179.5,398.5 Z"/></g>
<g><path style="opacity:1" fill="#97c057" d="M 144.5,394.5 C 151.273,394.046 155.94,396.879 158.5,403C 157.941,405.188 156.607,405.854 154.5,405C 149.475,396.712 144.309,396.546 139,404.5C 138.333,408.167 138.333,411.833 139,415.5C 141.226,419.861 144.726,421.361 149.5,420C 151.953,418.12 153.953,415.787 155.5,413C 156.449,412.383 157.282,412.549 158,413.5C 158.529,418.6 156.362,422.1 151.5,424C 141.341,426.346 135.174,422.513 133,412.5C 132.083,403.309 135.917,397.309 144.5,394.5 Z"/></g>
<g><path style="opacity:1" fill="#95bf55" d="M 308.5,394.5 C 309.822,394.33 310.989,394.663 312,395.5C 312.667,404.833 312.667,414.167 312,423.5C 310.667,424.833 309.333,424.833 308,423.5C 307.194,413.756 307.361,404.089 308.5,394.5 Z"/></g>
<g><path style="opacity:1" fill="#95c055" d="M 102.5,395.5 C 109.5,395.5 116.5,395.5 123.5,395.5C 123.67,396.822 123.337,397.989 122.5,399C 117.511,399.499 112.511,399.666 107.5,399.5C 107.5,402.167 107.5,404.833 107.5,407.5C 112.5,407.5 117.5,407.5 122.5,407.5C 122.5,408.5 122.5,409.5 122.5,410.5C 117.5,410.5 112.5,410.5 107.5,410.5C 107.5,413.833 107.5,417.167 107.5,420.5C 112.844,420.334 118.177,420.501 123.5,421C 124.833,422 124.833,423 123.5,424C 116.586,424.811 109.752,424.645 103,423.5C 102.5,414.173 102.334,404.839 102.5,395.5 Z"/></g>
<g><path style="opacity:1" fill="#97c158" d="M 212.5,394.5 C 217.591,394.135 221.758,395.801 225,399.5C 224.256,405.844 222.422,406.011 219.5,400C 215.425,397.614 212.092,398.281 209.5,402C 209.759,403.261 210.426,404.261 211.5,405C 214.73,406.308 218.064,407.308 221.5,408C 226.069,410.541 227.569,414.375 226,419.5C 221.86,424.211 216.694,425.711 210.5,424C 204.963,422.103 203.463,418.603 206,413.5C 208.179,415.348 210.013,417.515 211.5,420C 214.916,420.893 218.083,420.393 221,418.5C 221.825,416.299 221.325,414.466 219.5,413C 215.021,411.729 210.688,410.062 206.5,408C 203.195,401.112 205.195,396.612 212.5,394.5 Z"/></g>
<g><path style="opacity:1" fill="#98c159" d="M 324.5,395.5 C 330.509,395.334 336.509,395.501 342.5,396C 348.209,399.545 348.875,403.879 344.5,409C 343.167,409.667 341.833,410.333 340.5,411C 344.859,414.506 347.193,419.006 347.5,424.5C 345.856,424.714 344.356,424.38 343,423.5C 340.959,419.916 338.792,416.416 336.5,413C 334.323,411.798 331.989,411.298 329.5,411.5C 329.666,415.514 329.499,419.514 329,423.5C 327.644,424.38 326.144,424.714 324.5,424.5C 324.5,414.833 324.5,405.167 324.5,395.5 Z M 329.5,399.5 C 333.182,399.335 336.848,399.501 340.5,400C 343.167,402.333 343.167,404.667 340.5,407C 336.848,407.499 333.182,407.665 329.5,407.5C 329.5,404.833 329.5,402.167 329.5,399.5 Z"/></g>
<g><path style="opacity:1" fill="#97c057" d="M 237.5,394.5 C 239.017,394.511 240.184,395.177 241,396.5C 241.333,403.167 241.667,409.833 242,416.5C 245.601,421.321 249.601,421.654 254,417.5C 254.333,410.5 254.667,403.5 255,396.5C 256.667,393.833 258.333,393.833 260,396.5C 260.667,402.833 260.667,409.167 260,415.5C 258.85,422.093 254.85,425.093 248,424.5C 243.869,425.1 240.536,423.766 238,420.5C 236.197,411.858 236.03,403.192 237.5,394.5 Z"/></g>
<g><path style="opacity:1" fill="#96c056" d="M 274.5,394.5 C 276.371,394.859 277.871,395.859 279,397.5C 282.638,403.303 286.471,408.97 290.5,414.5C 291.331,408.193 291.831,401.859 292,395.5C 293.587,394.273 294.921,394.606 296,396.5C 296.667,405.167 296.667,413.833 296,422.5C 294.573,424.787 292.739,425.12 290.5,423.5C 286.333,417.167 282.167,410.833 278,404.5C 277.667,410.833 277.333,417.167 277,423.5C 275.644,424.38 274.144,424.714 272.5,424.5C 271.898,414.24 272.564,404.24 274.5,394.5 Z"/></g>
</svg>
